<?xml version="1.0" encoding="utf-8" standalone="no"?>
<!DOCTYPE svg PUBLIC "-//W3C//DTD SVG 1.1//EN"
  "http://www.w3.org/Graphics/SVG/1.1/DTD/svg11.dtd">
<svg xmlns:xlink="http://www.w3.org/1999/xlink" width="460.8pt" height="345.6pt" viewBox="0 0 460.8 345.6" xmlns="http://www.w3.org/2000/svg" version="1.1">
 <metadata>
  <rdf:RDF xmlns:dc="http://purl.org/dc/elements/1.1/" xmlns:cc="http://creativecommons.org/ns#" xmlns:rdf="http://www.w3.org/1999/02/22-rdf-syntax-ns#">
   <cc:Work>
    <dc:type rdf:resource="http://purl.org/dc/dcmitype/StillImage"/>
    <dc:date>2024-09-03T14:22:41.969664</dc:date>
    <dc:format>image/svg+xml</dc:format>
    <dc:creator>
     <cc:Agent>
      <dc:title>Matplotlib v3.7.2, https://matplotlib.org/</dc:title>
     </cc:Agent>
    </dc:creator>
   </cc:Work>
  </rdf:RDF>
 </metadata>
 <defs>
  <style type="text/css">*{stroke-linejoin: round; stroke-linecap: butt}</style>
 </defs>
 <g id="figure_1">
  <g id="patch_1">
   <path d="M 0 345.6 
L 460.8 345.6 
L 460.8 0 
L 0 0 
z
" style="fill: #ffffff"/>
  </g>
  <g id="axes_1">
   <g id="patch_2">
    <path d="M 57.6 307.584 
L 414.72 307.584 
L 414.72 41.472 
L 57.6 41.472 
z
" style="fill: #ffffff"/>
   </g>
   <g id="PathCollection_1">
    <defs>
     <path id="C0_0_05bea24d3a" d="M 0 3 
C 0.795609 3 1.55874 2.683901 2.12132 2.12132 
C 2.683901 1.55874 3 0.795609 3 -0 
C 3 -0.795609 2.683901 -1.55874 2.12132 -2.12132 
C 1.55874 -2.683901 0.795609 -3 0 -3 
C -0.795609 -3 -1.55874 -2.683901 -2.12132 -2.12132 
C -2.683901 -1.55874 -3 -0.795609 -3 0 
C -3 0.795609 -2.683901 1.55874 -2.12132 2.12132 
C -1.55874 2.683901 -0.795609 3 0 3 
z
"/>
    </defs>
    <g clip-path="url(#p772fc2290d)">
     <use xlink:href="#C0_0_05bea24d3a" x="106.80989" y="68.568759" style="fill: #c8beb7; stroke: #c8beb7"/>
    </g>
    <g clip-path="url(#p772fc2290d)">
     <use xlink:href="#C0_0_05bea24d3a" x="106.554654" y="67.971402" style="fill: #c8beb7; stroke: #c8beb7"/>
    </g>
    <g clip-path="url(#p772fc2290d)">
     <use xlink:href="#C0_0_05bea24d3a" x="128.289825" y="61.664141" style="fill: #0000ff; stroke: #0000ff"/>
    </g>
    <g clip-path="url(#p772fc2290d)">
     <use xlink:href="#C0_0_05bea24d3a" x="157.902259" y="114.453483" style="fill: #c8beb7; stroke: #c8beb7"/>
    </g>
    <g clip-path="url(#p772fc2290d)">
     <use xlink:href="#C0_0_05bea24d3a" x="158.645489" y="114.222934" style="fill: #c8beb7; stroke: #c8beb7"/>
    </g>
    <g clip-path="url(#p772fc2290d)">
     <use xlink:href="#C0_0_05bea24d3a" x="178.289379" y="100.095819" style="fill: #0000ff; stroke: #0000ff"/>
    </g>
    <g clip-path="url(#p772fc2290d)">
     <use xlink:href="#C0_0_05bea24d3a" x="219.663204" y="122.983788" style="fill: #0000ff; stroke: #0000ff"/>
    </g>
    <g clip-path="url(#p772fc2290d)">
     <use xlink:href="#C0_0_05bea24d3a" x="204.072661" y="128.014538" style="fill: #0000ff; stroke: #0000ff"/>
    </g>
    <g clip-path="url(#p772fc2290d)">
     <use xlink:href="#C0_0_05bea24d3a" x="189.987834" y="146.457422" style="fill: #c8beb7; stroke: #c8beb7"/>
    </g>
    <g clip-path="url(#p772fc2290d)">
     <use xlink:href="#C0_0_05bea24d3a" x="257.643555" y="160.384458" style="fill: #0000ff; stroke: #0000ff"/>
    </g>
    <g clip-path="url(#p772fc2290d)">
     <use xlink:href="#C0_0_05bea24d3a" x="257.873828" y="196.480971" style="fill: #c8beb7; stroke: #c8beb7"/>
    </g>
    <g clip-path="url(#p772fc2290d)">
     <use xlink:href="#C0_0_05bea24d3a" x="286.582179" y="177.791642" style="fill: #0000ff; stroke: #0000ff"/>
    </g>
    <g clip-path="url(#p772fc2290d)">
     <use xlink:href="#C0_0_05bea24d3a" x="309.698041" y="222.475807" style="fill: #c8beb7; stroke: #c8beb7"/>
    </g>
    <g clip-path="url(#p772fc2290d)">
     <use xlink:href="#C0_0_05bea24d3a" x="329.46457" y="204.938155" style="fill: #c8beb7; stroke: #c8beb7"/>
    </g>
    <g clip-path="url(#p772fc2290d)">
     <use xlink:href="#C0_0_05bea24d3a" x="256.847888" y="154.663136" style="fill: #0000ff; stroke: #0000ff"/>
    </g>
    <g clip-path="url(#p772fc2290d)">
     <use xlink:href="#C0_0_05bea24d3a" x="297.087506" y="165.620133" style="fill: #0000ff; stroke: #0000ff"/>
    </g>
    <g clip-path="url(#p772fc2290d)">
     <use xlink:href="#C0_0_05bea24d3a" x="212.730365" y="129.881742" style="fill: #0000ff; stroke: #0000ff"/>
    </g>
    <g clip-path="url(#p772fc2290d)">
     <use xlink:href="#C0_0_05bea24d3a" x="317.561301" y="177.082169" style="fill: #0000ff; stroke: #0000ff"/>
    </g>
    <g clip-path="url(#p772fc2290d)">
     <use xlink:href="#C0_0_05bea24d3a" x="339.763415" y="211.655878" style="fill: #0000ff; stroke: #0000ff"/>
    </g>
    <g clip-path="url(#p772fc2290d)">
     <use xlink:href="#C0_0_05bea24d3a" x="362.458671" y="209.740625" style="fill: #0000ff; stroke: #0000ff"/>
    </g>
    <g clip-path="url(#p772fc2290d)">
     <use xlink:href="#C0_0_05bea24d3a" x="399.941358" y="240.835608" style="fill: #c8beb7; stroke: #c8beb7"/>
    </g>
    <g clip-path="url(#p772fc2290d)">
     <use xlink:href="#C0_0_05bea24d3a" x="135.50836" y="132.132978" style="fill: #c8beb7; stroke: #c8beb7"/>
    </g>
    <g clip-path="url(#p772fc2290d)">
     <use xlink:href="#C0_0_05bea24d3a" x="156.126045" y="113.15234" style="fill: #c8beb7; stroke: #c8beb7"/>
    </g>
    <g clip-path="url(#p772fc2290d)">
     <use xlink:href="#C0_0_05bea24d3a" x="172.890308" y="156.910144" style="fill: #c8beb7; stroke: #c8beb7"/>
    </g>
    <g clip-path="url(#p772fc2290d)">
     <use xlink:href="#C0_0_05bea24d3a" x="199.323235" y="130.452939" style="fill: #c8beb7; stroke: #c8beb7"/>
    </g>
    <g clip-path="url(#p772fc2290d)">
     <use xlink:href="#C0_0_05bea24d3a" x="187.470983" y="151.246957" style="fill: #c8beb7; stroke: #c8beb7"/>
    </g>
    <g clip-path="url(#p772fc2290d)">
     <use xlink:href="#C0_0_05bea24d3a" x="236.355915" y="192.820484" style="fill: #c8beb7; stroke: #c8beb7"/>
    </g>
    <g clip-path="url(#p772fc2290d)">
     <use xlink:href="#C0_0_05bea24d3a" x="189.824825" y="149.967934" style="fill: #c8beb7; stroke: #c8beb7"/>
    </g>
    <g clip-path="url(#p772fc2290d)">
     <use xlink:href="#C0_0_05bea24d3a" x="161.733886" y="147.264265" style="fill: #c8beb7; stroke: #c8beb7"/>
    </g>
    <g clip-path="url(#p772fc2290d)">
     <use xlink:href="#C0_0_05bea24d3a" x="237.810601" y="181.049077" style="fill: #c8beb7; stroke: #c8beb7"/>
    </g>
    <g clip-path="url(#p772fc2290d)">
     <use xlink:href="#C0_0_05bea24d3a" x="243.252946" y="227.761023" style="fill: #c8beb7; stroke: #c8beb7"/>
    </g>
    <g clip-path="url(#p772fc2290d)">
     <use xlink:href="#C0_0_05bea24d3a" x="252.239371" y="166.19916" style="fill: #c8beb7; stroke: #c8beb7"/>
    </g>
    <g clip-path="url(#p772fc2290d)">
     <use xlink:href="#C0_0_05bea24d3a" x="274.331304" y="219.860328" style="fill: #c8beb7; stroke: #c8beb7"/>
    </g>
    <g clip-path="url(#p772fc2290d)">
     <use xlink:href="#C0_0_05bea24d3a" x="295.864743" y="209.103199" style="fill: #c8beb7; stroke: #c8beb7"/>
    </g>
    <g clip-path="url(#p772fc2290d)">
     <use xlink:href="#C0_0_05bea24d3a" x="213.405643" y="141.785607" style="fill: #c8beb7; stroke: #c8beb7"/>
    </g>
    <g clip-path="url(#p772fc2290d)">
     <use xlink:href="#C0_0_05bea24d3a" x="253.280667" y="154.734288" style="fill: #c8beb7; stroke: #c8beb7"/>
    </g>
    <g clip-path="url(#p772fc2290d)">
     <use xlink:href="#C0_0_05bea24d3a" x="165.767401" y="111.074541" style="fill: #c8beb7; stroke: #c8beb7"/>
    </g>
    <g clip-path="url(#p772fc2290d)">
     <use xlink:href="#C0_0_05bea24d3a" x="303.403374" y="187.561439" style="fill: #c8beb7; stroke: #c8beb7"/>
    </g>
    <g clip-path="url(#p772fc2290d)">
     <use xlink:href="#C0_0_05bea24d3a" x="327.942854" y="226.485566" style="fill: #c8beb7; stroke: #c8beb7"/>
    </g>
    <g clip-path="url(#p772fc2290d)">
     <use xlink:href="#C0_0_05bea24d3a" x="349.094536" y="220.403334" style="fill: #c8beb7; stroke: #c8beb7"/>
    </g>
    <g clip-path="url(#p772fc2290d)">
     <use xlink:href="#C0_0_05bea24d3a" x="388.200672" y="239.803055" style="fill: #c8beb7; stroke: #c8beb7"/>
    </g>
    <g clip-path="url(#p772fc2290d)">
     <use xlink:href="#C0_0_05bea24d3a" x="155.259833" y="113.554056" style="fill: #c8beb7; stroke: #c8beb7"/>
    </g>
    <g clip-path="url(#p772fc2290d)">
     <use xlink:href="#C0_0_05bea24d3a" x="198.143955" y="128.590772" style="fill: #c8beb7; stroke: #c8beb7"/>
    </g>
    <g clip-path="url(#p772fc2290d)">
     <use xlink:href="#C0_0_05bea24d3a" x="172.820116" y="156.92618" style="fill: #c8beb7; stroke: #c8beb7"/>
    </g>
    <g clip-path="url(#p772fc2290d)">
     <use xlink:href="#C0_0_05bea24d3a" x="185.9262" y="146.012888" style="fill: #c8beb7; stroke: #c8beb7"/>
    </g>
    <g clip-path="url(#p772fc2290d)">
     <use xlink:href="#C0_0_05bea24d3a" x="212.370417" y="159.312425" style="fill: #c8beb7; stroke: #c8beb7"/>
    </g>
    <g clip-path="url(#p772fc2290d)">
     <use xlink:href="#C0_0_05bea24d3a" x="218.326191" y="187.735086" style="fill: #c8beb7; stroke: #c8beb7"/>
    </g>
    <g clip-path="url(#p772fc2290d)">
     <use xlink:href="#C0_0_05bea24d3a" x="212.855645" y="218.007428" style="fill: #c8beb7; stroke: #c8beb7"/>
    </g>
    <g clip-path="url(#p772fc2290d)">
     <use xlink:href="#C0_0_05bea24d3a" x="259.657682" y="216.151774" style="fill: #c8beb7; stroke: #c8beb7"/>
    </g>
    <g clip-path="url(#p772fc2290d)">
     <use xlink:href="#C0_0_05bea24d3a" x="247.010619" y="250.926365" style="fill: #c8beb7; stroke: #c8beb7"/>
    </g>
    <g clip-path="url(#p772fc2290d)">
     <use xlink:href="#C0_0_05bea24d3a" x="292.761229" y="245.225959" style="fill: #c8beb7; stroke: #c8beb7"/>
    </g>
    <g clip-path="url(#p772fc2290d)">
     <use xlink:href="#C0_0_05bea24d3a" x="324.500037" y="268.624074" style="fill: #c8beb7; stroke: #c8beb7"/>
    </g>
    <g clip-path="url(#p772fc2290d)">
     <use xlink:href="#C0_0_05bea24d3a" x="329.082175" y="263.501774" style="fill: #c8beb7; stroke: #c8beb7"/>
    </g>
    <g clip-path="url(#p772fc2290d)">
     <use xlink:href="#C0_0_05bea24d3a" x="263.844946" y="208.295186" style="fill: #c8beb7; stroke: #c8beb7"/>
    </g>
    <g clip-path="url(#p772fc2290d)">
     <use xlink:href="#C0_0_05bea24d3a" x="296.789411" y="223.16332" style="fill: #c8beb7; stroke: #c8beb7"/>
    </g>
    <g clip-path="url(#p772fc2290d)">
     <use xlink:href="#C0_0_05bea24d3a" x="231.261077" y="187.188281" style="fill: #c8beb7; stroke: #c8beb7"/>
    </g>
    <g clip-path="url(#p772fc2290d)">
     <use xlink:href="#C0_0_05bea24d3a" x="320.938039" y="233.345056" style="fill: #c8beb7; stroke: #c8beb7"/>
    </g>
    <g clip-path="url(#p772fc2290d)">
     <use xlink:href="#C0_0_05bea24d3a" x="350.877989" y="242.244667" style="fill: #c8beb7; stroke: #c8beb7"/>
    </g>
    <g clip-path="url(#p772fc2290d)">
     <use xlink:href="#C0_0_05bea24d3a" x="356.96835" y="265.493455" style="fill: #c8beb7; stroke: #c8beb7"/>
    </g>
    <g clip-path="url(#p772fc2290d)">
     <use xlink:href="#C0_0_05bea24d3a" x="396.80679" y="295.488" style="fill: #c8beb7; stroke: #c8beb7"/>
    </g>
    <g clip-path="url(#p772fc2290d)">
     <use xlink:href="#C0_0_05bea24d3a" x="110.239063" y="67.285903" style="fill: #c8beb7; stroke: #c8beb7"/>
    </g>
    <g clip-path="url(#p772fc2290d)">
     <use xlink:href="#C0_0_05bea24d3a" x="110.106523" y="67.381981" style="fill: #c8beb7; stroke: #c8beb7"/>
    </g>
    <g clip-path="url(#p772fc2290d)">
     <use xlink:href="#C0_0_05bea24d3a" x="131.334607" y="63.011508" style="fill: #0000ff; stroke: #0000ff"/>
    </g>
    <g clip-path="url(#p772fc2290d)">
     <use xlink:href="#C0_0_05bea24d3a" x="174.385986" y="97.360228" style="fill: #0000ff; stroke: #0000ff"/>
    </g>
    <g clip-path="url(#p772fc2290d)">
     <use xlink:href="#C0_0_05bea24d3a" x="173.69997" y="100.342751" style="fill: #0000ff; stroke: #0000ff"/>
    </g>
    <g clip-path="url(#p772fc2290d)">
     <use xlink:href="#C0_0_05bea24d3a" x="178.230419" y="142.26985" style="fill: #c8beb7; stroke: #c8beb7"/>
    </g>
    <g clip-path="url(#p772fc2290d)">
     <use xlink:href="#C0_0_05bea24d3a" x="237.031782" y="127.505256" style="fill: #0000ff; stroke: #0000ff"/>
    </g>
    <g clip-path="url(#p772fc2290d)">
     <use xlink:href="#C0_0_05bea24d3a" x="245.383045" y="164.629767" style="fill: #c8beb7; stroke: #c8beb7"/>
    </g>
    <g clip-path="url(#p772fc2290d)">
     <use xlink:href="#C0_0_05bea24d3a" x="282.127284" y="164.12068" style="fill: #0000ff; stroke: #0000ff"/>
    </g>
    <g clip-path="url(#p772fc2290d)">
     <use xlink:href="#C0_0_05bea24d3a" x="298.022568" y="212.631133" style="fill: #c8beb7; stroke: #c8beb7"/>
    </g>
    <g clip-path="url(#p772fc2290d)">
     <use xlink:href="#C0_0_05bea24d3a" x="327.343842" y="177.427824" style="fill: #c8beb7; stroke: #c8beb7"/>
    </g>
    <g clip-path="url(#p772fc2290d)">
     <use xlink:href="#C0_0_05bea24d3a" x="275.042803" y="183.326452" style="fill: #0000ff; stroke: #0000ff"/>
    </g>
    <g clip-path="url(#p772fc2290d)">
     <use xlink:href="#C0_0_05bea24d3a" x="325.163728" y="200.080014" style="fill: #0000ff; stroke: #0000ff"/>
    </g>
    <g clip-path="url(#p772fc2290d)">
     <use xlink:href="#C0_0_05bea24d3a" x="235.028439" y="164.670754" style="fill: #0000ff; stroke: #0000ff"/>
    </g>
    <g clip-path="url(#p772fc2290d)">
     <use xlink:href="#C0_0_05bea24d3a" x="281.817821" y="156.543679" style="fill: #0000ff; stroke: #0000ff"/>
    </g>
    <g clip-path="url(#p772fc2290d)">
     <use xlink:href="#C0_0_05bea24d3a" x="293.705966" y="184.154335" style="fill: #0000ff; stroke: #0000ff"/>
    </g>
    <g clip-path="url(#p772fc2290d)">
     <use xlink:href="#C0_0_05bea24d3a" x="331.967344" y="180.90623" style="fill: #0000ff; stroke: #0000ff"/>
    </g>
    <g clip-path="url(#p772fc2290d)">
     <use xlink:href="#C0_0_05bea24d3a" x="363.139111" y="212.599428" style="fill: #c8beb7; stroke: #c8beb7"/>
    </g>
    <g clip-path="url(#p772fc2290d)">
     <use xlink:href="#C0_0_05bea24d3a" x="142.768583" y="133.174014" style="fill: #c8beb7; stroke: #c8beb7"/>
    </g>
    <g clip-path="url(#p772fc2290d)">
     <use xlink:href="#C0_0_05bea24d3a" x="161.901474" y="114.360805" style="fill: #c8beb7; stroke: #c8beb7"/>
    </g>
    <g clip-path="url(#p772fc2290d)">
     <use xlink:href="#C0_0_05bea24d3a" x="211.341927" y="131.954473" style="fill: #c8beb7; stroke: #c8beb7"/>
    </g>
    <g clip-path="url(#p772fc2290d)">
     <use xlink:href="#C0_0_05bea24d3a" x="184.40419" y="148.120688" style="fill: #c8beb7; stroke: #c8beb7"/>
    </g>
    <g clip-path="url(#p772fc2290d)">
     <use xlink:href="#C0_0_05bea24d3a" x="179.137957" y="169.463938" style="fill: #c8beb7; stroke: #c8beb7"/>
    </g>
    <g clip-path="url(#p772fc2290d)">
     <use xlink:href="#C0_0_05bea24d3a" x="253.699659" y="175.09982" style="fill: #c8beb7; stroke: #c8beb7"/>
    </g>
    <g clip-path="url(#p772fc2290d)">
     <use xlink:href="#C0_0_05bea24d3a" x="274.326382" y="199.393652" style="fill: #c8beb7; stroke: #c8beb7"/>
    </g>
    <g clip-path="url(#p772fc2290d)">
     <use xlink:href="#C0_0_05bea24d3a" x="290.61206" y="218.016216" style="fill: #c8beb7; stroke: #c8beb7"/>
    </g>
    <g clip-path="url(#p772fc2290d)">
     <use xlink:href="#C0_0_05bea24d3a" x="295.227822" y="257.048772" style="fill: #c8beb7; stroke: #c8beb7"/>
    </g>
    <g clip-path="url(#p772fc2290d)">
     <use xlink:href="#C0_0_05bea24d3a" x="340.128659" y="249.202552" style="fill: #c8beb7; stroke: #c8beb7"/>
    </g>
    <g clip-path="url(#p772fc2290d)">
     <use xlink:href="#C0_0_05bea24d3a" x="284.009295" y="230.014055" style="fill: #c8beb7; stroke: #c8beb7"/>
    </g>
    <g clip-path="url(#p772fc2290d)">
     <use xlink:href="#C0_0_05bea24d3a" x="338.077473" y="234.908587" style="fill: #c8beb7; stroke: #c8beb7"/>
    </g>
    <g clip-path="url(#p772fc2290d)">
     <use xlink:href="#C0_0_05bea24d3a" x="236.807364" y="211.741476" style="fill: #c8beb7; stroke: #c8beb7"/>
    </g>
    <g clip-path="url(#p772fc2290d)">
     <use xlink:href="#C0_0_05bea24d3a" x="293.047983" y="214.440722" style="fill: #c8beb7; stroke: #c8beb7"/>
    </g>
    <g clip-path="url(#p772fc2290d)">
     <use xlink:href="#C0_0_05bea24d3a" x="294.146153" y="230.399291" style="fill: #c8beb7; stroke: #c8beb7"/>
    </g>
    <g clip-path="url(#p772fc2290d)">
     <use xlink:href="#C0_0_05bea24d3a" x="350.518086" y="244.942859" style="fill: #c8beb7; stroke: #c8beb7"/>
    </g>
    <g clip-path="url(#p772fc2290d)">
     <use xlink:href="#C0_0_05bea24d3a" x="377.857727" y="263.876381" style="fill: #c8beb7; stroke: #c8beb7"/>
    </g>
    <g clip-path="url(#p772fc2290d)">
     <use xlink:href="#C0_0_05bea24d3a" x="160.359967" y="112.960768" style="fill: #c8beb7; stroke: #c8beb7"/>
    </g>
    <g clip-path="url(#p772fc2290d)">
     <use xlink:href="#C0_0_05bea24d3a" x="180.026623" y="139.035454" style="fill: #c8beb7; stroke: #c8beb7"/>
    </g>
    <g clip-path="url(#p772fc2290d)">
     <use xlink:href="#C0_0_05bea24d3a" x="216.656237" y="135.79408" style="fill: #c8beb7; stroke: #c8beb7"/>
    </g>
    <g clip-path="url(#p772fc2290d)">
     <use xlink:href="#C0_0_05bea24d3a" x="228.992002" y="173.29175" style="fill: #c8beb7; stroke: #c8beb7"/>
    </g>
    <g clip-path="url(#p772fc2290d)">
     <use xlink:href="#C0_0_05bea24d3a" x="275.825912" y="162.791595" style="fill: #c8beb7; stroke: #c8beb7"/>
    </g>
    <g clip-path="url(#p772fc2290d)">
     <use xlink:href="#C0_0_05bea24d3a" x="277.910026" y="227.394061" style="fill: #c8beb7; stroke: #c8beb7"/>
    </g>
    <g clip-path="url(#p772fc2290d)">
     <use xlink:href="#C0_0_05bea24d3a" x="328.443578" y="193.908609" style="fill: #c8beb7; stroke: #c8beb7"/>
    </g>
    <g clip-path="url(#p772fc2290d)">
     <use xlink:href="#C0_0_05bea24d3a" x="345.731993" y="260.691066" style="fill: #c8beb7; stroke: #c8beb7"/>
    </g>
    <g clip-path="url(#p772fc2290d)">
     <use xlink:href="#C0_0_05bea24d3a" x="371.152305" y="218.17576" style="fill: #c8beb7; stroke: #c8beb7"/>
    </g>
    <g clip-path="url(#p772fc2290d)">
     <use xlink:href="#C0_0_05bea24d3a" x="324.578546" y="205.321593" style="fill: #c8beb7; stroke: #c8beb7"/>
    </g>
    <g clip-path="url(#p772fc2290d)">
     <use xlink:href="#C0_0_05bea24d3a" x="372.845546" y="225.651578" style="fill: #c8beb7; stroke: #c8beb7"/>
    </g>
    <g clip-path="url(#p772fc2290d)">
     <use xlink:href="#C0_0_05bea24d3a" x="286.497802" y="189.089592" style="fill: #c8beb7; stroke: #c8beb7"/>
    </g>
    <g clip-path="url(#p772fc2290d)">
     <use xlink:href="#C0_0_05bea24d3a" x="312.954875" y="193.238582" style="fill: #c8beb7; stroke: #c8beb7"/>
    </g>
    <g clip-path="url(#p772fc2290d)">
     <use xlink:href="#C0_0_05bea24d3a" x="322.38428" y="219.938846" style="fill: #c8beb7; stroke: #c8beb7"/>
    </g>
    <g clip-path="url(#p772fc2290d)">
     <use xlink:href="#C0_0_05bea24d3a" x="359.015207" y="212.595061" style="fill: #c8beb7; stroke: #c8beb7"/>
    </g>
    <g clip-path="url(#p772fc2290d)">
     <use xlink:href="#C0_0_05bea24d3a" x="387.472945" y="227.199988" style="fill: #c8beb7; stroke: #c8beb7"/>
    </g>
    <g clip-path="url(#p772fc2290d)">
     <use xlink:href="#C0_0_05bea24d3a" x="116.772962" y="54.559312" style="fill: #0000ff; stroke: #0000ff"/>
    </g>
    <g clip-path="url(#p772fc2290d)">
     <use xlink:href="#C0_0_05bea24d3a" x="122.841924" y="59.243785" style="fill: #0000ff; stroke: #0000ff"/>
    </g>
    <g clip-path="url(#p772fc2290d)">
     <use xlink:href="#C0_0_05bea24d3a" x="156.223287" y="108.578527" style="fill: #c8beb7; stroke: #c8beb7"/>
    </g>
    <g clip-path="url(#p772fc2290d)">
     <use xlink:href="#C0_0_05bea24d3a" x="174.304456" y="97.571108" style="fill: #0000ff; stroke: #0000ff"/>
    </g>
    <g clip-path="url(#p772fc2290d)">
     <use xlink:href="#C0_0_05bea24d3a" x="181.696646" y="130.932129" style="fill: #c8beb7; stroke: #c8beb7"/>
    </g>
    <g clip-path="url(#p772fc2290d)">
     <use xlink:href="#C0_0_05bea24d3a" x="234.186486" y="131.418924" style="fill: #0000ff; stroke: #0000ff"/>
    </g>
    <g clip-path="url(#p772fc2290d)">
     <use xlink:href="#C0_0_05bea24d3a" x="254.113591" y="181.599406" style="fill: #c8beb7; stroke: #c8beb7"/>
    </g>
    <g clip-path="url(#p772fc2290d)">
     <use xlink:href="#C0_0_05bea24d3a" x="274.057823" y="161.582314" style="fill: #c8beb7; stroke: #c8beb7"/>
    </g>
    <g clip-path="url(#p772fc2290d)">
     <use xlink:href="#C0_0_05bea24d3a" x="248.63379" y="160.520684" style="fill: #0000ff; stroke: #0000ff"/>
    </g>
    <g clip-path="url(#p772fc2290d)">
     <use xlink:href="#C0_0_05bea24d3a" x="299.833881" y="175.403381" style="fill: #0000ff; stroke: #0000ff"/>
    </g>
    <g clip-path="url(#p772fc2290d)">
     <use xlink:href="#C0_0_05bea24d3a" x="227.710421" y="137.106246" style="fill: #0000ff; stroke: #0000ff"/>
    </g>
    <g clip-path="url(#p772fc2290d)">
     <use xlink:href="#C0_0_05bea24d3a" x="212.408087" y="130.923153" style="fill: #0000ff; stroke: #0000ff"/>
    </g>
    <g clip-path="url(#p772fc2290d)">
     <use xlink:href="#C0_0_05bea24d3a" x="230.517007" y="160.342703" style="fill: #0000ff; stroke: #0000ff"/>
    </g>
    <g clip-path="url(#p772fc2290d)">
     <use xlink:href="#C0_0_05bea24d3a" x="259.371881" y="160.198438" style="fill: #0000ff; stroke: #0000ff"/>
    </g>
    <g clip-path="url(#p772fc2290d)">
     <use xlink:href="#C0_0_05bea24d3a" x="290.539605" y="194.484227" style="fill: #c8beb7; stroke: #c8beb7"/>
    </g>
    <g clip-path="url(#p772fc2290d)">
     <use xlink:href="#C0_0_05bea24d3a" x="167.5364" y="87.933103" style="fill: #0000ff; stroke: #0000ff"/>
    </g>
    <g clip-path="url(#p772fc2290d)">
     <use xlink:href="#C0_0_05bea24d3a" x="209.564206" y="134.741396" style="fill: #c8beb7; stroke: #c8beb7"/>
    </g>
    <g clip-path="url(#p772fc2290d)">
     <use xlink:href="#C0_0_05bea24d3a" x="192.750578" y="117.995142" style="fill: #0000ff; stroke: #0000ff"/>
    </g>
    <g clip-path="url(#p772fc2290d)">
     <use xlink:href="#C0_0_05bea24d3a" x="183.732437" y="132.266477" style="fill: #c8beb7; stroke: #c8beb7"/>
    </g>
    <g clip-path="url(#p772fc2290d)">
     <use xlink:href="#C0_0_05bea24d3a" x="263.396945" y="149.17796" style="fill: #0000ff; stroke: #0000ff"/>
    </g>
    <g clip-path="url(#p772fc2290d)">
     <use xlink:href="#C0_0_05bea24d3a" x="288.44078" y="189.03246" style="fill: #c8beb7; stroke: #c8beb7"/>
    </g>
    <g clip-path="url(#p772fc2290d)">
     <use xlink:href="#C0_0_05bea24d3a" x="293.401612" y="185.801834" style="fill: #c8beb7; stroke: #c8beb7"/>
    </g>
    <g clip-path="url(#p772fc2290d)">
     <use xlink:href="#C0_0_05bea24d3a" x="287.808682" y="174.32658" style="fill: #0000ff; stroke: #0000ff"/>
    </g>
    <g clip-path="url(#p772fc2290d)">
     <use xlink:href="#C0_0_05bea24d3a" x="333.603779" y="186.662019" style="fill: #0000ff; stroke: #0000ff"/>
    </g>
    <g clip-path="url(#p772fc2290d)">
     <use xlink:href="#C0_0_05bea24d3a" x="277.51379" y="153.912582" style="fill: #0000ff; stroke: #0000ff"/>
    </g>
    <g clip-path="url(#p772fc2290d)">
     <use xlink:href="#C0_0_05bea24d3a" x="213.880537" y="135.419244" style="fill: #0000ff; stroke: #0000ff"/>
    </g>
    <g clip-path="url(#p772fc2290d)">
     <use xlink:href="#C0_0_05bea24d3a" x="235.59223" y="161.666409" style="fill: #0000ff; stroke: #0000ff"/>
    </g>
    <g clip-path="url(#p772fc2290d)">
     <use xlink:href="#C0_0_05bea24d3a" x="246.336737" y="170.186675" style="fill: #0000ff; stroke: #0000ff"/>
    </g>
    <g clip-path="url(#p772fc2290d)">
     <use xlink:href="#C0_0_05bea24d3a" x="274.560142" y="207.561446" style="fill: #c8beb7; stroke: #c8beb7"/>
    </g>
    <g clip-path="url(#p772fc2290d)">
     <use xlink:href="#C0_0_05bea24d3a" x="107.546534" y="72.580162" style="fill: #c8beb7; stroke: #c8beb7"/>
    </g>
    <g clip-path="url(#p772fc2290d)">
     <use xlink:href="#C0_0_05bea24d3a" x="127.168916" y="62.726197" style="fill: #0000ff; stroke: #0000ff"/>
    </g>
    <g clip-path="url(#p772fc2290d)">
     <use xlink:href="#C0_0_05bea24d3a" x="158.31697" y="114.036298" style="fill: #c8beb7; stroke: #c8beb7"/>
    </g>
    <g clip-path="url(#p772fc2290d)">
     <use xlink:href="#C0_0_05bea24d3a" x="174.866552" y="105.113297" style="fill: #0000ff; stroke: #0000ff"/>
    </g>
    <g clip-path="url(#p772fc2290d)">
     <use xlink:href="#C0_0_05bea24d3a" x="189.378744" y="156.814759" style="fill: #c8beb7; stroke: #c8beb7"/>
    </g>
    <g clip-path="url(#p772fc2290d)">
     <use xlink:href="#C0_0_05bea24d3a" x="219.817008" y="134.563087" style="fill: #c8beb7; stroke: #c8beb7"/>
    </g>
    <g clip-path="url(#p772fc2290d)">
     <use xlink:href="#C0_0_05bea24d3a" x="197.532892" y="129.613677" style="fill: #0000ff; stroke: #0000ff"/>
    </g>
    <g clip-path="url(#p772fc2290d)">
     <use xlink:href="#C0_0_05bea24d3a" x="253.186022" y="149.264474" style="fill: #0000ff; stroke: #0000ff"/>
    </g>
    <g clip-path="url(#p772fc2290d)">
     <use xlink:href="#C0_0_05bea24d3a" x="183.606566" y="106.647631" style="fill: #0000ff; stroke: #0000ff"/>
    </g>
    <g clip-path="url(#p772fc2290d)">
     <use xlink:href="#C0_0_05bea24d3a" x="175.663304" y="102.920981" style="fill: #0000ff; stroke: #0000ff"/>
    </g>
    <g clip-path="url(#p772fc2290d)">
     <use xlink:href="#C0_0_05bea24d3a" x="196.087845" y="132.185939" style="fill: #0000ff; stroke: #0000ff"/>
    </g>
    <g clip-path="url(#p772fc2290d)">
     <use xlink:href="#C0_0_05bea24d3a" x="230.647799" y="132.157552" style="fill: #0000ff; stroke: #0000ff"/>
    </g>
    <g clip-path="url(#p772fc2290d)">
     <use xlink:href="#C0_0_05bea24d3a" x="263.494001" y="159.388872" style="fill: #c8beb7; stroke: #c8beb7"/>
    </g>
    <g clip-path="url(#p772fc2290d)">
     <use xlink:href="#C0_0_05bea24d3a" x="155.494625" y="113.303211" style="fill: #c8beb7; stroke: #c8beb7"/>
    </g>
    <g clip-path="url(#p772fc2290d)">
     <use xlink:href="#C0_0_05bea24d3a" x="187.142568" y="151.790864" style="fill: #c8beb7; stroke: #c8beb7"/>
    </g>
    <g clip-path="url(#p772fc2290d)">
     <use xlink:href="#C0_0_05bea24d3a" x="170.724145" y="134.25719" style="fill: #c8beb7; stroke: #c8beb7"/>
    </g>
    <g clip-path="url(#p772fc2290d)">
     <use xlink:href="#C0_0_05bea24d3a" x="180.71947" y="169.998175" style="fill: #c8beb7; stroke: #c8beb7"/>
    </g>
    <g clip-path="url(#p772fc2290d)">
     <use xlink:href="#C0_0_05bea24d3a" x="221.484885" y="168.255717" style="fill: #c8beb7; stroke: #c8beb7"/>
    </g>
    <g clip-path="url(#p772fc2290d)">
     <use xlink:href="#C0_0_05bea24d3a" x="169.131701" y="125.000807" style="fill: #c8beb7; stroke: #c8beb7"/>
    </g>
    <g clip-path="url(#p772fc2290d)">
     <use xlink:href="#C0_0_05bea24d3a" x="227.201709" y="148.125998" style="fill: #c8beb7; stroke: #c8beb7"/>
    </g>
    <g clip-path="url(#p772fc2290d)">
     <use xlink:href="#C0_0_05bea24d3a" x="139.376648" y="94.824952" style="fill: #c8beb7; stroke: #c8beb7"/>
    </g>
    <g clip-path="url(#p772fc2290d)">
     <use xlink:href="#C0_0_05bea24d3a" x="212.799272" y="145.226432" style="fill: #c8beb7; stroke: #c8beb7"/>
    </g>
    <g clip-path="url(#p772fc2290d)">
     <use xlink:href="#C0_0_05bea24d3a" x="231.405414" y="190.226239" style="fill: #c8beb7; stroke: #c8beb7"/>
    </g>
    <g clip-path="url(#p772fc2290d)">
     <use xlink:href="#C0_0_05bea24d3a" x="267.270319" y="169.899241" style="fill: #c8beb7; stroke: #c8beb7"/>
    </g>
    <g clip-path="url(#p772fc2290d)">
     <use xlink:href="#C0_0_05bea24d3a" x="301.553776" y="183.288262" style="fill: #c8beb7; stroke: #c8beb7"/>
    </g>
    <g clip-path="url(#p772fc2290d)">
     <use xlink:href="#C0_0_05bea24d3a" x="110.250337" y="68.100924" style="fill: #c8beb7; stroke: #c8beb7"/>
    </g>
    <g clip-path="url(#p772fc2290d)">
     <use xlink:href="#C0_0_05bea24d3a" x="132.147198" y="63.085831" style="fill: #0000ff; stroke: #0000ff"/>
    </g>
    <g clip-path="url(#p772fc2290d)">
     <use xlink:href="#C0_0_05bea24d3a" x="161.333108" y="115.566353" style="fill: #c8beb7; stroke: #c8beb7"/>
    </g>
    <g clip-path="url(#p772fc2290d)">
     <use xlink:href="#C0_0_05bea24d3a" x="161.909858" y="114.294056" style="fill: #c8beb7; stroke: #c8beb7"/>
    </g>
    <g clip-path="url(#p772fc2290d)">
     <use xlink:href="#C0_0_05bea24d3a" x="183.400403" y="107.010152" style="fill: #0000ff; stroke: #0000ff"/>
    </g>
    <g clip-path="url(#p772fc2290d)">
     <use xlink:href="#C0_0_05bea24d3a" x="228.995112" y="127.214386" style="fill: #0000ff; stroke: #0000ff"/>
    </g>
    <g clip-path="url(#p772fc2290d)">
     <use xlink:href="#C0_0_05bea24d3a" x="201.353228" y="128.949869" style="fill: #0000ff; stroke: #0000ff"/>
    </g>
    <g clip-path="url(#p772fc2290d)">
     <use xlink:href="#C0_0_05bea24d3a" x="130.525377" y="63.597792" style="fill: #0000ff; stroke: #0000ff"/>
    </g>
    <g clip-path="url(#p772fc2290d)">
     <use xlink:href="#C0_0_05bea24d3a" x="175.347444" y="98.696211" style="fill: #0000ff; stroke: #0000ff"/>
    </g>
    <g clip-path="url(#p772fc2290d)">
     <use xlink:href="#C0_0_05bea24d3a" x="171.86257" y="101.644048" style="fill: #0000ff; stroke: #0000ff"/>
    </g>
    <g clip-path="url(#p772fc2290d)">
     <use xlink:href="#C0_0_05bea24d3a" x="211.073427" y="122.245445" style="fill: #c8beb7; stroke: #c8beb7"/>
    </g>
    <g clip-path="url(#p772fc2290d)">
     <use xlink:href="#C0_0_05bea24d3a" x="162.15776" y="116.70441" style="fill: #c8beb7; stroke: #c8beb7"/>
    </g>
    <g clip-path="url(#p772fc2290d)">
     <use xlink:href="#C0_0_05bea24d3a" x="204.606317" y="129.496004" style="fill: #c8beb7; stroke: #c8beb7"/>
    </g>
    <g clip-path="url(#p772fc2290d)">
     <use xlink:href="#C0_0_05bea24d3a" x="175.302611" y="156.379782" style="fill: #c8beb7; stroke: #c8beb7"/>
    </g>
    <g clip-path="url(#p772fc2290d)">
     <use xlink:href="#C0_0_05bea24d3a" x="198.764829" y="156.660564" style="fill: #c8beb7; stroke: #c8beb7"/>
    </g>
    <g clip-path="url(#p772fc2290d)">
     <use xlink:href="#C0_0_05bea24d3a" x="232.332926" y="171.529836" style="fill: #c8beb7; stroke: #c8beb7"/>
    </g>
    <g clip-path="url(#p772fc2290d)">
     <use xlink:href="#C0_0_05bea24d3a" x="222.295885" y="184.668823" style="fill: #c8beb7; stroke: #c8beb7"/>
    </g>
    <g clip-path="url(#p772fc2290d)">
     <use xlink:href="#C0_0_05bea24d3a" x="159.162784" y="110.910206" style="fill: #c8beb7; stroke: #c8beb7"/>
    </g>
    <g clip-path="url(#p772fc2290d)">
     <use xlink:href="#C0_0_05bea24d3a" x="212.502558" y="133.86971" style="fill: #c8beb7; stroke: #c8beb7"/>
    </g>
    <g clip-path="url(#p772fc2290d)">
     <use xlink:href="#C0_0_05bea24d3a" x="174.113035" y="141.862724" style="fill: #c8beb7; stroke: #c8beb7"/>
    </g>
    <g clip-path="url(#p772fc2290d)">
     <use xlink:href="#C0_0_05bea24d3a" x="219.093051" y="180.912643" style="fill: #c8beb7; stroke: #c8beb7"/>
    </g>
    <g clip-path="url(#p772fc2290d)">
     <use xlink:href="#C0_0_05bea24d3a" x="110.317442" y="68.286266" style="fill: #c8beb7; stroke: #c8beb7"/>
    </g>
    <g clip-path="url(#p772fc2290d)">
     <use xlink:href="#C0_0_05bea24d3a" x="110.00397" y="68.742128" style="fill: #c8beb7; stroke: #c8beb7"/>
    </g>
    <g clip-path="url(#p772fc2290d)">
     <use xlink:href="#C0_0_05bea24d3a" x="133.229459" y="64.654387" style="fill: #0000ff; stroke: #0000ff"/>
    </g>
    <g clip-path="url(#p772fc2290d)">
     <use xlink:href="#C0_0_05bea24d3a" x="172.914321" y="96.374864" style="fill: #0000ff; stroke: #0000ff"/>
    </g>
    <g clip-path="url(#p772fc2290d)">
     <use xlink:href="#C0_0_05bea24d3a" x="173.316301" y="98.036213" style="fill: #0000ff; stroke: #0000ff"/>
    </g>
    <g clip-path="url(#p772fc2290d)">
     <use xlink:href="#C0_0_05bea24d3a" x="178.131774" y="101.799364" style="fill: #0000ff; stroke: #0000ff"/>
    </g>
    <g clip-path="url(#p772fc2290d)">
     <use xlink:href="#C0_0_05bea24d3a" x="215.513498" y="124.826852" style="fill: #0000ff; stroke: #0000ff"/>
    </g>
    <g clip-path="url(#p772fc2290d)">
     <use xlink:href="#C0_0_05bea24d3a" x="208.727299" y="133.961737" style="fill: #0000ff; stroke: #0000ff"/>
    </g>
    <g clip-path="url(#p772fc2290d)">
     <use xlink:href="#C0_0_05bea24d3a" x="245.609051" y="173.290502" style="fill: #c8beb7; stroke: #c8beb7"/>
    </g>
    <g clip-path="url(#p772fc2290d)">
     <use xlink:href="#C0_0_05bea24d3a" x="142.903426" y="134.073287" style="fill: #c8beb7; stroke: #c8beb7"/>
    </g>
    <g clip-path="url(#p772fc2290d)">
     <use xlink:href="#C0_0_05bea24d3a" x="162.267909" y="116.075445" style="fill: #c8beb7; stroke: #c8beb7"/>
    </g>
    <g clip-path="url(#p772fc2290d)">
     <use xlink:href="#C0_0_05bea24d3a" x="204.198871" y="133.076842" style="fill: #c8beb7; stroke: #c8beb7"/>
    </g>
    <g clip-path="url(#p772fc2290d)">
     <use xlink:href="#C0_0_05bea24d3a" x="188.363258" y="144.101117" style="fill: #c8beb7; stroke: #c8beb7"/>
    </g>
    <g clip-path="url(#p772fc2290d)">
     <use xlink:href="#C0_0_05bea24d3a" x="185.689718" y="141.661114" style="fill: #c8beb7; stroke: #c8beb7"/>
    </g>
    <g clip-path="url(#p772fc2290d)">
     <use xlink:href="#C0_0_05bea24d3a" x="204.333331" y="158.757477" style="fill: #c8beb7; stroke: #c8beb7"/>
    </g>
    <g clip-path="url(#p772fc2290d)">
     <use xlink:href="#C0_0_05bea24d3a" x="225.895701" y="178.10106" style="fill: #c8beb7; stroke: #c8beb7"/>
    </g>
    <g clip-path="url(#p772fc2290d)">
     <use xlink:href="#C0_0_05bea24d3a" x="252.9567" y="217.821455" style="fill: #c8beb7; stroke: #c8beb7"/>
    </g>
    <g clip-path="url(#p772fc2290d)">
     <use xlink:href="#C0_0_05bea24d3a" x="162.87027" y="116.883502" style="fill: #c8beb7; stroke: #c8beb7"/>
    </g>
    <g clip-path="url(#p772fc2290d)">
     <use xlink:href="#C0_0_05bea24d3a" x="177.405792" y="136.700441" style="fill: #c8beb7; stroke: #c8beb7"/>
    </g>
    <g clip-path="url(#p772fc2290d)">
     <use xlink:href="#C0_0_05bea24d3a" x="216.194143" y="137.188953" style="fill: #c8beb7; stroke: #c8beb7"/>
    </g>
    <g clip-path="url(#p772fc2290d)">
     <use xlink:href="#C0_0_05bea24d3a" x="190.92515" y="153.127227" style="fill: #c8beb7; stroke: #c8beb7"/>
    </g>
    <g clip-path="url(#p772fc2290d)">
     <use xlink:href="#C0_0_05bea24d3a" x="234.569056" y="182.107163" style="fill: #c8beb7; stroke: #c8beb7"/>
    </g>
    <g clip-path="url(#p772fc2290d)">
     <use xlink:href="#C0_0_05bea24d3a" x="198.188002" y="159.242979" style="fill: #c8beb7; stroke: #c8beb7"/>
    </g>
    <g clip-path="url(#p772fc2290d)">
     <use xlink:href="#C0_0_05bea24d3a" x="234.617957" y="218.796371" style="fill: #c8beb7; stroke: #c8beb7"/>
    </g>
    <g clip-path="url(#p772fc2290d)">
     <use xlink:href="#C0_0_05bea24d3a" x="117.017718" y="55.587862" style="fill: #0000ff; stroke: #0000ff"/>
    </g>
    <g clip-path="url(#p772fc2290d)">
     <use xlink:href="#C0_0_05bea24d3a" x="119.011789" y="56.334522" style="fill: #0000ff; stroke: #0000ff"/>
    </g>
    <g clip-path="url(#p772fc2290d)">
     <use xlink:href="#C0_0_05bea24d3a" x="246.618774" y="129.438748" style="fill: #0000ff; stroke: #0000ff"/>
    </g>
    <g clip-path="url(#p772fc2290d)">
     <use xlink:href="#C0_0_05bea24d3a" x="282.735439" y="149.213012" style="fill: #0000ff; stroke: #0000ff"/>
    </g>
    <g clip-path="url(#p772fc2290d)">
     <use xlink:href="#C0_0_05bea24d3a" x="277.941348" y="157.585684" style="fill: #0000ff; stroke: #0000ff"/>
    </g>
    <g clip-path="url(#p772fc2290d)">
     <use xlink:href="#C0_0_05bea24d3a" x="318.169198" y="189.7772" style="fill: #c8beb7; stroke: #c8beb7"/>
    </g>
    <g clip-path="url(#p772fc2290d)">
     <use xlink:href="#C0_0_05bea24d3a" x="166.381996" y="86.786117" style="fill: #0000ff; stroke: #0000ff"/>
    </g>
    <g clip-path="url(#p772fc2290d)">
     <use xlink:href="#C0_0_05bea24d3a" x="288.952242" y="143.449097" style="fill: #0000ff; stroke: #0000ff"/>
    </g>
    <g clip-path="url(#p772fc2290d)">
     <use xlink:href="#C0_0_05bea24d3a" x="330.226679" y="159.082995" style="fill: #0000ff; stroke: #0000ff"/>
    </g>
    <g clip-path="url(#p772fc2290d)">
     <use xlink:href="#C0_0_05bea24d3a" x="307.576659" y="172.94068" style="fill: #0000ff; stroke: #0000ff"/>
    </g>
    <g clip-path="url(#p772fc2290d)">
     <use xlink:href="#C0_0_05bea24d3a" x="348.864154" y="210.367139" style="fill: #c8beb7; stroke: #c8beb7"/>
    </g>
    <g clip-path="url(#p772fc2290d)">
     <use xlink:href="#C0_0_05bea24d3a" x="267.035218" y="154.568454" style="fill: #0000ff; stroke: #0000ff"/>
    </g>
    <g clip-path="url(#p772fc2290d)">
     <use xlink:href="#C0_0_05bea24d3a" x="293.853687" y="176.250187" style="fill: #0000ff; stroke: #0000ff"/>
    </g>
    <g clip-path="url(#p772fc2290d)">
     <use xlink:href="#C0_0_05bea24d3a" x="310.683577" y="179.221436" style="fill: #0000ff; stroke: #0000ff"/>
    </g>
    <g clip-path="url(#p772fc2290d)">
     <use xlink:href="#C0_0_05bea24d3a" x="349.281704" y="214.216994" style="fill: #c8beb7; stroke: #c8beb7"/>
    </g>
    <g clip-path="url(#p772fc2290d)">
     <use xlink:href="#C0_0_05bea24d3a" x="115.711905" y="53.568" style="fill: #0000ff; stroke: #0000ff"/>
    </g>
    <g clip-path="url(#p772fc2290d)">
     <use xlink:href="#C0_0_05bea24d3a" x="123.133662" y="60.313513" style="fill: #0000ff; stroke: #0000ff"/>
    </g>
    <g clip-path="url(#p772fc2290d)">
     <use xlink:href="#C0_0_05bea24d3a" x="147.188358" y="105.388172" style="fill: #c8beb7; stroke: #c8beb7"/>
    </g>
    <g clip-path="url(#p772fc2290d)">
     <use xlink:href="#C0_0_05bea24d3a" x="165.394374" y="88.503297" style="fill: #0000ff; stroke: #0000ff"/>
    </g>
    <g clip-path="url(#p772fc2290d)">
     <use xlink:href="#C0_0_05bea24d3a" x="165.128223" y="116.094878" style="fill: #c8beb7; stroke: #c8beb7"/>
    </g>
    <g clip-path="url(#p772fc2290d)">
     <use xlink:href="#C0_0_05bea24d3a" x="104.368527" y="69.995013" style="fill: #c8beb7; stroke: #c8beb7"/>
    </g>
   </g>
   <g id="matplotlib.axis_1">
    <g id="xtick_1">
     <g id="line2d_1">
      <defs>
       <path id="m5a86a4e868" d="M 0 0 
L 0 3.5 
" style="stroke: #000000; stroke-width: 0.8"/>
      </defs>
      <g>
       <use xlink:href="#m5a86a4e868" x="57.6" y="307.584" style="stroke: #000000; stroke-width: 0.8"/>
      </g>
     </g>
     <g id="text_1">
      <!-- 0 -->
      <g transform="translate(55.1 321.52775) scale(0.1 -0.1)">
       <defs>
        <path id="TimesNewRomanPSMT-30" d="M 231 2094 
Q 231 2819 450 3342 
Q 669 3866 1031 4122 
Q 1313 4325 1613 4325 
Q 2100 4325 2488 3828 
Q 2972 3213 2972 2159 
Q 2972 1422 2759 906 
Q 2547 391 2217 158 
Q 1888 -75 1581 -75 
Q 975 -75 572 641 
Q 231 1244 231 2094 
z
M 844 2016 
Q 844 1141 1059 588 
Q 1238 122 1591 122 
Q 1759 122 1940 273 
Q 2122 425 2216 781 
Q 2359 1319 2359 2297 
Q 2359 3022 2209 3506 
Q 2097 3866 1919 4016 
Q 1791 4119 1609 4119 
Q 1397 4119 1231 3928 
Q 1006 3669 925 3112 
Q 844 2556 844 2016 
z
" transform="scale(0.015625)"/>
       </defs>
       <use xlink:href="#TimesNewRomanPSMT-30"/>
      </g>
     </g>
    </g>
    <g id="xtick_2">
     <g id="line2d_2">
      <g>
       <use xlink:href="#m5a86a4e868" x="105.548452" y="307.584" style="stroke: #000000; stroke-width: 0.8"/>
      </g>
     </g>
     <g id="text_2">
      <!-- 1 -->
      <g transform="translate(103.048452 321.52775) scale(0.1 -0.1)">
       <defs>
        <path id="TimesNewRomanPSMT-31" d="M 750 3822 
L 1781 4325 
L 1884 4325 
L 1884 747 
Q 1884 391 1914 303 
Q 1944 216 2037 169 
Q 2131 122 2419 116 
L 2419 0 
L 825 0 
L 825 116 
Q 1125 122 1212 167 
Q 1300 213 1334 289 
Q 1369 366 1369 747 
L 1369 3034 
Q 1369 3497 1338 3628 
Q 1316 3728 1258 3775 
Q 1200 3822 1119 3822 
Q 1003 3822 797 3725 
L 750 3822 
z
" transform="scale(0.015625)"/>
       </defs>
       <use xlink:href="#TimesNewRomanPSMT-31"/>
      </g>
     </g>
    </g>
    <g id="xtick_3">
     <g id="line2d_3">
      <g>
       <use xlink:href="#m5a86a4e868" x="153.496903" y="307.584" style="stroke: #000000; stroke-width: 0.8"/>
      </g>
     </g>
     <g id="text_3">
      <!-- 2 -->
      <g transform="translate(150.996903 321.52775) scale(0.1 -0.1)">
       <defs>
        <path id="TimesNewRomanPSMT-32" d="M 2934 816 
L 2638 0 
L 138 0 
L 138 116 
Q 1241 1122 1691 1759 
Q 2141 2397 2141 2925 
Q 2141 3328 1894 3587 
Q 1647 3847 1303 3847 
Q 991 3847 742 3664 
Q 494 3481 375 3128 
L 259 3128 
Q 338 3706 661 4015 
Q 984 4325 1469 4325 
Q 1984 4325 2329 3994 
Q 2675 3663 2675 3213 
Q 2675 2891 2525 2569 
Q 2294 2063 1775 1497 
Q 997 647 803 472 
L 1909 472 
Q 2247 472 2383 497 
Q 2519 522 2628 598 
Q 2738 675 2819 816 
L 2934 816 
z
" transform="scale(0.015625)"/>
       </defs>
       <use xlink:href="#TimesNewRomanPSMT-32"/>
      </g>
     </g>
    </g>
    <g id="xtick_4">
     <g id="line2d_4">
      <g>
       <use xlink:href="#m5a86a4e868" x="201.445355" y="307.584" style="stroke: #000000; stroke-width: 0.8"/>
      </g>
     </g>
     <g id="text_4">
      <!-- 3 -->
      <g transform="translate(198.945355 321.52775) scale(0.1 -0.1)">
       <defs>
        <path id="TimesNewRomanPSMT-33" d="M 325 3431 
Q 506 3859 782 4092 
Q 1059 4325 1472 4325 
Q 1981 4325 2253 3994 
Q 2459 3747 2459 3466 
Q 2459 3003 1878 2509 
Q 2269 2356 2469 2072 
Q 2669 1788 2669 1403 
Q 2669 853 2319 450 
Q 1863 -75 997 -75 
Q 569 -75 414 31 
Q 259 138 259 259 
Q 259 350 332 419 
Q 406 488 509 488 
Q 588 488 669 463 
Q 722 447 909 348 
Q 1097 250 1169 231 
Q 1284 197 1416 197 
Q 1734 197 1970 444 
Q 2206 691 2206 1028 
Q 2206 1275 2097 1509 
Q 2016 1684 1919 1775 
Q 1784 1900 1550 2001 
Q 1316 2103 1072 2103 
L 972 2103 
L 972 2197 
Q 1219 2228 1467 2375 
Q 1716 2522 1828 2728 
Q 1941 2934 1941 3181 
Q 1941 3503 1739 3701 
Q 1538 3900 1238 3900 
Q 753 3900 428 3381 
L 325 3431 
z
" transform="scale(0.015625)"/>
       </defs>
       <use xlink:href="#TimesNewRomanPSMT-33"/>
      </g>
     </g>
    </g>
    <g id="xtick_5">
     <g id="line2d_5">
      <g>
       <use xlink:href="#m5a86a4e868" x="249.393807" y="307.584" style="stroke: #000000; stroke-width: 0.8"/>
      </g>
     </g>
     <g id="text_5">
      <!-- 4 -->
      <g transform="translate(246.893807 321.52775) scale(0.1 -0.1)">
       <defs>
        <path id="TimesNewRomanPSMT-34" d="M 2978 1563 
L 2978 1119 
L 2409 1119 
L 2409 0 
L 1894 0 
L 1894 1119 
L 100 1119 
L 100 1519 
L 2066 4325 
L 2409 4325 
L 2409 1563 
L 2978 1563 
z
M 1894 1563 
L 1894 3666 
L 406 1563 
L 1894 1563 
z
" transform="scale(0.015625)"/>
       </defs>
       <use xlink:href="#TimesNewRomanPSMT-34"/>
      </g>
     </g>
    </g>
    <g id="xtick_6">
     <g id="line2d_6">
      <g>
       <use xlink:href="#m5a86a4e868" x="297.342258" y="307.584" style="stroke: #000000; stroke-width: 0.8"/>
      </g>
     </g>
     <g id="text_6">
      <!-- 5 -->
      <g transform="translate(294.842258 321.52775) scale(0.1 -0.1)">
       <defs>
        <path id="TimesNewRomanPSMT-35" d="M 2778 4238 
L 2534 3706 
L 1259 3706 
L 981 3138 
Q 1809 3016 2294 2522 
Q 2709 2097 2709 1522 
Q 2709 1188 2573 903 
Q 2438 619 2231 419 
Q 2025 219 1772 97 
Q 1413 -75 1034 -75 
Q 653 -75 479 54 
Q 306 184 306 341 
Q 306 428 378 495 
Q 450 563 559 563 
Q 641 563 702 538 
Q 763 513 909 409 
Q 1144 247 1384 247 
Q 1750 247 2026 523 
Q 2303 800 2303 1197 
Q 2303 1581 2056 1914 
Q 1809 2247 1375 2428 
Q 1034 2569 447 2591 
L 1259 4238 
L 2778 4238 
z
" transform="scale(0.015625)"/>
       </defs>
       <use xlink:href="#TimesNewRomanPSMT-35"/>
      </g>
     </g>
    </g>
    <g id="xtick_7">
     <g id="line2d_7">
      <g>
       <use xlink:href="#m5a86a4e868" x="345.29071" y="307.584" style="stroke: #000000; stroke-width: 0.8"/>
      </g>
     </g>
     <g id="text_7">
      <!-- 6 -->
      <g transform="translate(342.79071 321.52775) scale(0.1 -0.1)">
       <defs>
        <path id="TimesNewRomanPSMT-36" d="M 2869 4325 
L 2869 4209 
Q 2456 4169 2195 4045 
Q 1934 3922 1679 3669 
Q 1425 3416 1258 3105 
Q 1091 2794 978 2366 
Q 1428 2675 1881 2675 
Q 2316 2675 2634 2325 
Q 2953 1975 2953 1425 
Q 2953 894 2631 456 
Q 2244 -75 1606 -75 
Q 1172 -75 869 213 
Q 275 772 275 1663 
Q 275 2231 503 2743 
Q 731 3256 1154 3653 
Q 1578 4050 1965 4187 
Q 2353 4325 2688 4325 
L 2869 4325 
z
M 925 2138 
Q 869 1716 869 1456 
Q 869 1156 980 804 
Q 1091 453 1309 247 
Q 1469 100 1697 100 
Q 1969 100 2183 356 
Q 2397 613 2397 1088 
Q 2397 1622 2184 2012 
Q 1972 2403 1581 2403 
Q 1463 2403 1327 2353 
Q 1191 2303 925 2138 
z
" transform="scale(0.015625)"/>
       </defs>
       <use xlink:href="#TimesNewRomanPSMT-36"/>
      </g>
     </g>
    </g>
    <g id="xtick_8">
     <g id="line2d_8">
      <g>
       <use xlink:href="#m5a86a4e868" x="393.239162" y="307.584" style="stroke: #000000; stroke-width: 0.8"/>
      </g>
     </g>
     <g id="text_8">
      <!-- 7 -->
      <g transform="translate(390.739162 321.52775) scale(0.1 -0.1)">
       <defs>
        <path id="TimesNewRomanPSMT-37" d="M 644 4238 
L 2916 4238 
L 2916 4119 
L 1503 -88 
L 1153 -88 
L 2419 3728 
L 1253 3728 
Q 900 3728 750 3644 
Q 488 3500 328 3200 
L 238 3234 
L 644 4238 
z
" transform="scale(0.015625)"/>
       </defs>
       <use xlink:href="#TimesNewRomanPSMT-37"/>
      </g>
     </g>
    </g>
    <g id="text_9">
     <!-- Atom pairwise distance (nm) -->
     <g transform="translate(125.423438 339.867437) scale(0.18 -0.18)">
      <defs>
       <path id="TimesNewRomanPS-BoldMT-41" d="M 2663 1206 
L 1166 1206 
L 988 794 
Q 900 588 900 453 
Q 900 275 1044 191 
Q 1128 141 1459 116 
L 1459 0 
L 50 0 
L 50 116 
Q 278 150 425 304 
Q 572 459 788 944 
L 2303 4325 
L 2363 4325 
L 3891 850 
Q 4109 356 4250 228 
Q 4356 131 4550 116 
L 4550 0 
L 2500 0 
L 2500 116 
L 2584 116 
Q 2831 116 2931 184 
Q 3000 234 3000 328 
Q 3000 384 2981 444 
Q 2975 472 2888 678 
L 2663 1206 
z
M 2556 1438 
L 1925 2897 
L 1275 1438 
L 2556 1438 
z
" transform="scale(0.015625)"/>
       <path id="TimesNewRomanPS-BoldMT-74" d="M 1375 3991 
L 1375 2922 
L 2069 2922 
L 2069 2613 
L 1375 2613 
L 1375 809 
Q 1375 556 1398 482 
Q 1422 409 1481 364 
Q 1541 319 1591 319 
Q 1794 319 1975 628 
L 2069 559 
Q 1816 -41 1247 -41 
Q 969 -41 776 114 
Q 584 269 531 459 
Q 500 566 500 1034 
L 500 2613 
L 119 2613 
L 119 2722 
Q 513 3000 789 3306 
Q 1066 3613 1272 3991 
L 1375 3991 
z
" transform="scale(0.015625)"/>
       <path id="TimesNewRomanPS-BoldMT-6f" d="M 1594 3009 
Q 1975 3009 2303 2812 
Q 2631 2616 2801 2253 
Q 2972 1891 2972 1459 
Q 2972 838 2656 419 
Q 2275 -88 1603 -88 
Q 944 -88 587 375 
Q 231 838 231 1447 
Q 231 2075 595 2542 
Q 959 3009 1594 3009 
z
M 1606 2788 
Q 1447 2788 1333 2667 
Q 1219 2547 1183 2192 
Q 1147 1838 1147 1206 
Q 1147 872 1191 581 
Q 1225 359 1337 243 
Q 1450 128 1594 128 
Q 1734 128 1828 206 
Q 1950 313 1991 503 
Q 2053 800 2053 1703 
Q 2053 2234 1993 2432 
Q 1934 2631 1819 2722 
Q 1738 2788 1606 2788 
z
" transform="scale(0.015625)"/>
       <path id="TimesNewRomanPS-BoldMT-6d" d="M 1428 2922 
L 1428 2538 
Q 1669 2800 1873 2904 
Q 2078 3009 2322 3009 
Q 2603 3009 2793 2878 
Q 2984 2747 3088 2478 
Q 3338 2759 3567 2884 
Q 3797 3009 4047 3009 
Q 4350 3009 4529 2870 
Q 4709 2731 4779 2517 
Q 4850 2303 4850 1834 
L 4850 638 
Q 4850 300 4911 219 
Q 4972 138 5166 113 
L 5166 0 
L 3656 0 
L 3656 113 
Q 3834 128 3919 250 
Q 3975 334 3975 638 
L 3975 1894 
Q 3975 2284 3944 2390 
Q 3913 2497 3845 2548 
Q 3778 2600 3688 2600 
Q 3553 2600 3415 2501 
Q 3278 2403 3138 2206 
L 3138 638 
Q 3138 322 3191 241 
Q 3263 125 3466 113 
L 3466 0 
L 1953 0 
L 1953 113 
Q 2075 119 2145 173 
Q 2216 228 2239 304 
Q 2263 381 2263 638 
L 2263 1894 
Q 2263 2291 2231 2391 
Q 2200 2491 2126 2547 
Q 2053 2603 1969 2603 
Q 1844 2603 1741 2538 
Q 1594 2441 1428 2206 
L 1428 638 
Q 1428 328 1489 229 
Q 1550 131 1744 113 
L 1744 0 
L 238 0 
L 238 113 
Q 422 131 500 231 
Q 553 300 553 638 
L 553 2288 
Q 553 2619 492 2700 
Q 431 2781 238 2806 
L 238 2922 
L 1428 2922 
z
" transform="scale(0.015625)"/>
       <path id="TimesNewRomanPS-BoldMT-20" transform="scale(0.015625)"/>
       <path id="TimesNewRomanPS-BoldMT-70" d="M 1347 297 
L 1347 -791 
Q 1347 -1016 1383 -1097 
Q 1419 -1178 1494 -1215 
Q 1569 -1253 1788 -1253 
L 1788 -1369 
L 122 -1369 
L 122 -1253 
Q 316 -1247 409 -1144 
Q 472 -1072 472 -772 
L 472 2313 
Q 472 2622 400 2708 
Q 328 2794 122 2806 
L 122 2922 
L 1347 2922 
L 1347 2538 
Q 1500 2763 1659 2863 
Q 1888 3009 2156 3009 
Q 2478 3009 2742 2806 
Q 3006 2603 3143 2245 
Q 3281 1888 3281 1475 
Q 3281 1031 3139 664 
Q 2997 297 2726 104 
Q 2456 -88 2125 -88 
Q 1884 -88 1675 19 
Q 1519 100 1347 297 
z
M 1347 613 
Q 1616 231 1922 231 
Q 2091 231 2200 409 
Q 2363 672 2363 1409 
Q 2363 2166 2184 2444 
Q 2066 2628 1866 2628 
Q 1550 2628 1347 2172 
L 1347 613 
z
" transform="scale(0.015625)"/>
       <path id="TimesNewRomanPS-BoldMT-61" d="M 1828 431 
Q 1294 -41 869 -41 
Q 619 -41 453 123 
Q 288 288 288 534 
Q 288 869 575 1136 
Q 863 1403 1828 1847 
L 1828 2141 
Q 1828 2472 1792 2558 
Q 1756 2644 1656 2708 
Q 1556 2772 1431 2772 
Q 1228 2772 1097 2681 
Q 1016 2625 1016 2550 
Q 1016 2484 1103 2388 
Q 1222 2253 1222 2128 
Q 1222 1975 1108 1867 
Q 994 1759 809 1759 
Q 613 1759 480 1878 
Q 347 1997 347 2156 
Q 347 2381 525 2586 
Q 703 2791 1022 2900 
Q 1341 3009 1684 3009 
Q 2100 3009 2342 2832 
Q 2584 2656 2656 2450 
Q 2700 2319 2700 1847 
L 2700 713 
Q 2700 513 2715 461 
Q 2731 409 2762 384 
Q 2794 359 2834 359 
Q 2916 359 3000 475 
L 3094 400 
Q 2938 169 2770 64 
Q 2603 -41 2391 -41 
Q 2141 -41 2000 76 
Q 1859 194 1828 431 
z
M 1828 659 
L 1828 1638 
Q 1450 1416 1266 1163 
Q 1144 994 1144 822 
Q 1144 678 1247 569 
Q 1325 484 1466 484 
Q 1622 484 1828 659 
z
" transform="scale(0.015625)"/>
       <path id="TimesNewRomanPS-BoldMT-69" d="M 919 4338 
Q 1122 4338 1262 4195 
Q 1403 4053 1403 3853 
Q 1403 3653 1261 3512 
Q 1119 3372 919 3372 
Q 719 3372 578 3512 
Q 438 3653 438 3853 
Q 438 4053 578 4195 
Q 719 4338 919 4338 
z
M 1356 2922 
L 1356 606 
Q 1356 297 1428 211 
Q 1500 125 1709 113 
L 1709 0 
L 131 0 
L 131 113 
Q 325 119 419 225 
Q 481 297 481 606 
L 481 2313 
Q 481 2622 409 2708 
Q 338 2794 131 2806 
L 131 2922 
L 1356 2922 
z
" transform="scale(0.015625)"/>
       <path id="TimesNewRomanPS-BoldMT-72" d="M 1428 2922 
L 1428 2259 
Q 1719 2713 1937 2861 
Q 2156 3009 2359 3009 
Q 2534 3009 2639 2901 
Q 2744 2794 2744 2597 
Q 2744 2388 2642 2272 
Q 2541 2156 2397 2156 
Q 2231 2156 2109 2262 
Q 1988 2369 1966 2381 
Q 1934 2400 1894 2400 
Q 1803 2400 1722 2331 
Q 1594 2225 1528 2028 
Q 1428 1725 1428 1359 
L 1428 688 
L 1431 513 
Q 1431 334 1453 284 
Q 1491 200 1564 161 
Q 1638 122 1813 113 
L 1813 0 
L 234 0 
L 234 113 
Q 425 128 492 217 
Q 559 306 559 688 
L 559 2303 
Q 559 2553 534 2622 
Q 503 2709 443 2750 
Q 384 2791 234 2806 
L 234 2922 
L 1428 2922 
z
" transform="scale(0.015625)"/>
       <path id="TimesNewRomanPS-BoldMT-77" d="M 3113 -88 
L 2313 2056 
L 1528 -88 
L 1366 -88 
L 588 2031 
Q 413 2516 291 2663 
Q 213 2763 53 2806 
L 53 2922 
L 1528 2922 
L 1528 2806 
Q 1378 2806 1322 2762 
Q 1266 2719 1266 2663 
Q 1266 2609 1366 2344 
L 1794 1203 
L 2206 2344 
L 2175 2419 
Q 2081 2653 2011 2717 
Q 1941 2781 1794 2806 
L 1794 2922 
L 3291 2922 
L 3291 2806 
Q 3116 2797 3069 2758 
Q 3022 2719 3022 2647 
Q 3022 2578 3113 2344 
L 3525 1203 
L 3900 2253 
Q 3981 2478 3981 2559 
Q 3981 2681 3922 2737 
Q 3863 2794 3691 2806 
L 3691 2922 
L 4556 2922 
L 4556 2806 
Q 4413 2788 4328 2705 
Q 4244 2622 4109 2234 
L 3291 -88 
L 3113 -88 
z
" transform="scale(0.015625)"/>
       <path id="TimesNewRomanPS-BoldMT-73" d="M 2063 3003 
L 2109 2006 
L 2003 2006 
Q 1813 2450 1608 2612 
Q 1403 2775 1200 2775 
Q 1072 2775 981 2689 
Q 891 2603 891 2491 
Q 891 2406 953 2328 
Q 1053 2200 1512 1889 
Q 1972 1578 2117 1361 
Q 2263 1144 2263 875 
Q 2263 631 2141 397 
Q 2019 163 1797 37 
Q 1575 -88 1306 -88 
Q 1097 -88 747 44 
Q 653 78 619 78 
Q 516 78 447 -78 
L 344 -78 
L 294 972 
L 400 972 
Q 541 559 786 353 
Q 1031 147 1250 147 
Q 1400 147 1495 239 
Q 1591 331 1591 463 
Q 1591 613 1497 722 
Q 1403 831 1078 1053 
Q 600 1384 459 1559 
Q 253 1816 253 2125 
Q 253 2463 486 2736 
Q 719 3009 1159 3009 
Q 1397 3009 1619 2894 
Q 1703 2847 1756 2847 
Q 1813 2847 1847 2870 
Q 1881 2894 1956 3003 
L 2063 3003 
z
" transform="scale(0.015625)"/>
       <path id="TimesNewRomanPS-BoldMT-65" d="M 2691 1566 
L 1088 1566 
Q 1116 984 1397 647 
Q 1613 388 1916 388 
Q 2103 388 2256 492 
Q 2409 597 2584 869 
L 2691 800 
Q 2453 316 2165 114 
Q 1878 -88 1500 -88 
Q 850 -88 516 413 
Q 247 816 247 1413 
Q 247 2144 642 2576 
Q 1038 3009 1569 3009 
Q 2013 3009 2339 2645 
Q 2666 2281 2691 1566 
z
M 1922 1775 
Q 1922 2278 1867 2465 
Q 1813 2653 1697 2750 
Q 1631 2806 1522 2806 
Q 1359 2806 1256 2647 
Q 1072 2369 1072 1884 
L 1072 1775 
L 1922 1775 
z
" transform="scale(0.015625)"/>
       <path id="TimesNewRomanPS-BoldMT-64" d="M 3056 4238 
L 3056 875 
Q 3056 534 3075 472 
Q 3100 369 3170 319 
Q 3241 269 3416 256 
L 3416 153 
L 2181 -88 
L 2181 375 
Q 1959 106 1786 9 
Q 1613 -88 1394 -88 
Q 834 -88 509 413 
Q 247 819 247 1409 
Q 247 1881 409 2254 
Q 572 2628 855 2818 
Q 1138 3009 1463 3009 
Q 1672 3009 1834 2928 
Q 1997 2847 2181 2644 
L 2181 3525 
Q 2181 3859 2153 3928 
Q 2116 4019 2041 4062 
Q 1966 4106 1759 4106 
L 1759 4238 
L 3056 4238 
z
M 2181 2256 
Q 1950 2700 1616 2700 
Q 1500 2700 1425 2638 
Q 1309 2541 1236 2297 
Q 1163 2053 1163 1550 
Q 1163 997 1244 731 
Q 1325 466 1466 347 
Q 1538 288 1663 288 
Q 1938 288 2181 719 
L 2181 2256 
z
" transform="scale(0.015625)"/>
       <path id="TimesNewRomanPS-BoldMT-6e" d="M 1409 2922 
L 1409 2544 
Q 1634 2788 1840 2898 
Q 2047 3009 2284 3009 
Q 2569 3009 2756 2851 
Q 2944 2694 3006 2459 
Q 3056 2281 3056 1775 
L 3056 638 
Q 3056 300 3117 217 
Q 3178 134 3372 113 
L 3372 0 
L 1894 0 
L 1894 113 
Q 2059 134 2131 250 
Q 2181 328 2181 638 
L 2181 1938 
Q 2181 2297 2153 2390 
Q 2125 2484 2058 2536 
Q 1991 2588 1909 2588 
Q 1641 2588 1409 2203 
L 1409 638 
Q 1409 309 1470 221 
Q 1531 134 1697 113 
L 1697 0 
L 219 0 
L 219 113 
Q 403 131 481 231 
Q 534 300 534 638 
L 534 2288 
Q 534 2619 473 2700 
Q 413 2781 219 2806 
L 219 2922 
L 1409 2922 
z
" transform="scale(0.015625)"/>
       <path id="TimesNewRomanPS-BoldMT-63" d="M 2600 753 
L 2697 678 
Q 2491 291 2183 101 
Q 1875 -88 1528 -88 
Q 944 -88 594 353 
Q 244 794 244 1413 
Q 244 2009 563 2463 
Q 947 3009 1622 3009 
Q 2075 3009 2342 2781 
Q 2609 2553 2609 2272 
Q 2609 2094 2501 1987 
Q 2394 1881 2219 1881 
Q 2034 1881 1914 2003 
Q 1794 2125 1766 2438 
Q 1747 2634 1675 2713 
Q 1603 2791 1506 2791 
Q 1356 2791 1250 2631 
Q 1088 2391 1088 1894 
Q 1088 1481 1219 1104 
Q 1350 728 1578 544 
Q 1750 409 1984 409 
Q 2138 409 2275 481 
Q 2413 553 2600 753 
z
" transform="scale(0.015625)"/>
       <path id="TimesNewRomanPS-BoldMT-28" d="M 2056 4334 
L 2056 4191 
Q 1731 3978 1578 3775 
Q 1366 3494 1247 3053 
Q 1097 2506 1097 1525 
Q 1097 600 1233 87 
Q 1369 -425 1603 -741 
Q 1766 -959 2056 -1125 
L 2056 -1281 
Q 1303 -1028 779 -248 
Q 256 531 256 1544 
Q 256 2544 778 3314 
Q 1300 4084 2056 4334 
z
" transform="scale(0.015625)"/>
       <path id="TimesNewRomanPS-BoldMT-29" d="M 78 -1281 
L 78 -1138 
Q 403 -922 556 -719 
Q 766 -438 888 0 
Q 1038 550 1038 1531 
Q 1038 2456 902 2967 
Q 766 3478 531 3794 
Q 369 4013 78 4178 
L 78 4334 
Q 831 4081 1354 3301 
Q 1878 2522 1878 1509 
Q 1878 513 1354 -257 
Q 831 -1028 78 -1281 
z
" transform="scale(0.015625)"/>
      </defs>
      <use xlink:href="#TimesNewRomanPS-BoldMT-41"/>
      <use xlink:href="#TimesNewRomanPS-BoldMT-74" x="72.216797"/>
      <use xlink:href="#TimesNewRomanPS-BoldMT-6f" x="105.517578"/>
      <use xlink:href="#TimesNewRomanPS-BoldMT-6d" x="155.517578"/>
      <use xlink:href="#TimesNewRomanPS-BoldMT-20" x="238.818359"/>
      <use xlink:href="#TimesNewRomanPS-BoldMT-70" x="263.818359"/>
      <use xlink:href="#TimesNewRomanPS-BoldMT-61" x="319.433594"/>
      <use xlink:href="#TimesNewRomanPS-BoldMT-69" x="369.433594"/>
      <use xlink:href="#TimesNewRomanPS-BoldMT-72" x="397.216797"/>
      <use xlink:href="#TimesNewRomanPS-BoldMT-77" x="441.601562"/>
      <use xlink:href="#TimesNewRomanPS-BoldMT-69" x="513.818359"/>
      <use xlink:href="#TimesNewRomanPS-BoldMT-73" x="541.601562"/>
      <use xlink:href="#TimesNewRomanPS-BoldMT-65" x="580.517578"/>
      <use xlink:href="#TimesNewRomanPS-BoldMT-20" x="624.902344"/>
      <use xlink:href="#TimesNewRomanPS-BoldMT-64" x="649.902344"/>
      <use xlink:href="#TimesNewRomanPS-BoldMT-69" x="705.517578"/>
      <use xlink:href="#TimesNewRomanPS-BoldMT-73" x="733.300781"/>
      <use xlink:href="#TimesNewRomanPS-BoldMT-74" x="772.216797"/>
      <use xlink:href="#TimesNewRomanPS-BoldMT-61" x="805.517578"/>
      <use xlink:href="#TimesNewRomanPS-BoldMT-6e" x="855.517578"/>
      <use xlink:href="#TimesNewRomanPS-BoldMT-63" x="911.132812"/>
      <use xlink:href="#TimesNewRomanPS-BoldMT-65" x="955.517578"/>
      <use xlink:href="#TimesNewRomanPS-BoldMT-20" x="999.902344"/>
      <use xlink:href="#TimesNewRomanPS-BoldMT-28" x="1024.902344"/>
      <use xlink:href="#TimesNewRomanPS-BoldMT-6e" x="1058.203125"/>
      <use xlink:href="#TimesNewRomanPS-BoldMT-6d" x="1113.818359"/>
      <use xlink:href="#TimesNewRomanPS-BoldMT-29" x="1197.119141"/>
     </g>
    </g>
   </g>
   <g id="matplotlib.axis_2">
    <g id="ytick_1">
     <g id="line2d_9">
      <defs>
       <path id="m91bee6f73a" d="M 0 0 
L -3.5 0 
" style="stroke: #000000; stroke-width: 0.8"/>
      </defs>
      <g>
       <use xlink:href="#m91bee6f73a" x="57.6" y="289.551246" style="stroke: #000000; stroke-width: 0.8"/>
      </g>
     </g>
     <g id="text_10">
      <!-- 14 -->
      <g transform="translate(34.960938 293.023121) scale(0.1 -0.1)">
       <defs>
        <path id="TimesNewRomanPSMT-2212" d="M 3484 2000 
L 116 2000 
L 116 2256 
L 3484 2256 
L 3484 2000 
z
" transform="scale(0.015625)"/>
       </defs>
       <use xlink:href="#TimesNewRomanPSMT-2212"/>
       <use xlink:href="#TimesNewRomanPSMT-31" x="56.396484"/>
       <use xlink:href="#TimesNewRomanPSMT-34" x="106.396484"/>
      </g>
     </g>
    </g>
    <g id="ytick_2">
     <g id="line2d_10">
      <g>
       <use xlink:href="#m91bee6f73a" x="57.6" y="259.397504" style="stroke: #000000; stroke-width: 0.8"/>
      </g>
     </g>
     <g id="text_11">
      <!-- 12 -->
      <g transform="translate(34.960938 262.869379) scale(0.1 -0.1)">
       <use xlink:href="#TimesNewRomanPSMT-2212"/>
       <use xlink:href="#TimesNewRomanPSMT-31" x="56.396484"/>
       <use xlink:href="#TimesNewRomanPSMT-32" x="106.396484"/>
      </g>
     </g>
    </g>
    <g id="ytick_3">
     <g id="line2d_11">
      <g>
       <use xlink:href="#m91bee6f73a" x="57.6" y="229.243762" style="stroke: #000000; stroke-width: 0.8"/>
      </g>
     </g>
     <g id="text_12">
      <!-- 10 -->
      <g transform="translate(34.960938 232.715637) scale(0.1 -0.1)">
       <use xlink:href="#TimesNewRomanPSMT-2212"/>
       <use xlink:href="#TimesNewRomanPSMT-31" x="56.396484"/>
       <use xlink:href="#TimesNewRomanPSMT-30" x="106.396484"/>
      </g>
     </g>
    </g>
    <g id="ytick_4">
     <g id="line2d_12">
      <g>
       <use xlink:href="#m91bee6f73a" x="57.6" y="199.09002" style="stroke: #000000; stroke-width: 0.8"/>
      </g>
     </g>
     <g id="text_13">
      <!-- 8 -->
      <g transform="translate(39.960938 202.561895) scale(0.1 -0.1)">
       <defs>
        <path id="TimesNewRomanPSMT-38" d="M 1228 2134 
Q 725 2547 579 2797 
Q 434 3047 434 3316 
Q 434 3728 753 4026 
Q 1072 4325 1600 4325 
Q 2113 4325 2425 4047 
Q 2738 3769 2738 3413 
Q 2738 3175 2569 2928 
Q 2400 2681 1866 2347 
Q 2416 1922 2594 1678 
Q 2831 1359 2831 1006 
Q 2831 559 2490 242 
Q 2150 -75 1597 -75 
Q 994 -75 656 303 
Q 388 606 388 966 
Q 388 1247 577 1523 
Q 766 1800 1228 2134 
z
M 1719 2469 
Q 2094 2806 2194 3001 
Q 2294 3197 2294 3444 
Q 2294 3772 2109 3958 
Q 1925 4144 1606 4144 
Q 1288 4144 1088 3959 
Q 888 3775 888 3528 
Q 888 3366 970 3203 
Q 1053 3041 1206 2894 
L 1719 2469 
z
M 1375 2016 
Q 1116 1797 991 1539 
Q 866 1281 866 981 
Q 866 578 1086 336 
Q 1306 94 1647 94 
Q 1984 94 2187 284 
Q 2391 475 2391 747 
Q 2391 972 2272 1150 
Q 2050 1481 1375 2016 
z
" transform="scale(0.015625)"/>
       </defs>
       <use xlink:href="#TimesNewRomanPSMT-2212"/>
       <use xlink:href="#TimesNewRomanPSMT-38" x="56.396484"/>
      </g>
     </g>
    </g>
    <g id="ytick_5">
     <g id="line2d_13">
      <g>
       <use xlink:href="#m91bee6f73a" x="57.6" y="168.936278" style="stroke: #000000; stroke-width: 0.8"/>
      </g>
     </g>
     <g id="text_14">
      <!-- 6 -->
      <g transform="translate(39.960938 172.408153) scale(0.1 -0.1)">
       <use xlink:href="#TimesNewRomanPSMT-2212"/>
       <use xlink:href="#TimesNewRomanPSMT-36" x="56.396484"/>
      </g>
     </g>
    </g>
    <g id="ytick_6">
     <g id="line2d_14">
      <g>
       <use xlink:href="#m91bee6f73a" x="57.6" y="138.782536" style="stroke: #000000; stroke-width: 0.8"/>
      </g>
     </g>
     <g id="text_15">
      <!-- 4 -->
      <g transform="translate(39.960938 142.254411) scale(0.1 -0.1)">
       <use xlink:href="#TimesNewRomanPSMT-2212"/>
       <use xlink:href="#TimesNewRomanPSMT-34" x="56.396484"/>
      </g>
     </g>
    </g>
    <g id="ytick_7">
     <g id="line2d_15">
      <g>
       <use xlink:href="#m91bee6f73a" x="57.6" y="108.628793" style="stroke: #000000; stroke-width: 0.8"/>
      </g>
     </g>
     <g id="text_16">
      <!-- 2 -->
      <g transform="translate(39.960938 112.100668) scale(0.1 -0.1)">
       <use xlink:href="#TimesNewRomanPSMT-2212"/>
       <use xlink:href="#TimesNewRomanPSMT-32" x="56.396484"/>
      </g>
     </g>
    </g>
    <g id="ytick_8">
     <g id="line2d_16">
      <g>
       <use xlink:href="#m91bee6f73a" x="57.6" y="78.475051" style="stroke: #000000; stroke-width: 0.8"/>
      </g>
     </g>
     <g id="text_17">
      <!-- 0 -->
      <g transform="translate(45.6 81.946926) scale(0.1 -0.1)">
       <use xlink:href="#TimesNewRomanPSMT-30"/>
      </g>
     </g>
    </g>
    <g id="ytick_9">
     <g id="line2d_17">
      <g>
       <use xlink:href="#m91bee6f73a" x="57.6" y="48.321309" style="stroke: #000000; stroke-width: 0.8"/>
      </g>
     </g>
     <g id="text_18">
      <!-- 2 -->
      <g transform="translate(45.6 51.793184) scale(0.1 -0.1)">
       <use xlink:href="#TimesNewRomanPSMT-32"/>
      </g>
     </g>
    </g>
    <g id="text_19">
     <!-- Log(AMI) -->
     <g transform="translate(27.076875 214.022531) rotate(-90) scale(0.18 -0.18)">
      <defs>
       <path id="TimesNewRomanPS-BoldMT-4c" d="M 4041 1488 
L 3881 0 
L 119 0 
L 119 116 
L 259 116 
Q 444 116 556 181 
Q 638 225 681 331 
Q 716 406 716 725 
L 716 3513 
Q 716 3838 681 3919 
Q 647 4000 542 4061 
Q 438 4122 259 4122 
L 119 4122 
L 119 4238 
L 2378 4238 
L 2378 4122 
L 2194 4122 
Q 2009 4122 1897 4056 
Q 1816 4013 1769 3906 
Q 1734 3831 1734 3513 
L 1734 813 
Q 1734 488 1771 398 
Q 1809 309 1919 266 
Q 1997 238 2297 238 
L 2650 238 
Q 2988 238 3213 356 
Q 3438 475 3602 731 
Q 3766 988 3913 1488 
L 4041 1488 
z
" transform="scale(0.015625)"/>
       <path id="TimesNewRomanPS-BoldMT-67" d="M 2091 2888 
L 3075 2888 
L 3075 2544 
L 2516 2544 
Q 2669 2391 2728 2266 
Q 2803 2097 2803 1913 
Q 2803 1600 2629 1370 
Q 2456 1141 2157 1011 
Q 1859 881 1628 881 
Q 1609 881 1253 897 
Q 1113 897 1017 805 
Q 922 713 922 584 
Q 922 472 1008 400 
Q 1094 328 1288 328 
L 1828 334 
Q 2484 334 2731 191 
Q 3084 -9 3084 -425 
Q 3084 -691 2921 -908 
Q 2759 -1125 2494 -1228 
Q 2091 -1381 1566 -1381 
Q 1172 -1381 847 -1304 
Q 522 -1228 381 -1092 
Q 241 -956 241 -806 
Q 241 -663 348 -548 
Q 456 -434 750 -356 
Q 344 -156 344 200 
Q 344 416 509 619 
Q 675 822 1034 972 
Q 616 1125 428 1375 
Q 241 1625 241 1953 
Q 241 2381 591 2695 
Q 941 3009 1491 3009 
Q 1781 3009 2091 2888 
z
M 1550 2816 
Q 1369 2816 1244 2633 
Q 1119 2450 1119 1875 
Q 1119 1409 1242 1236 
Q 1366 1063 1534 1063 
Q 1722 1063 1847 1234 
Q 1972 1406 1972 1903 
Q 1972 2463 1831 2666 
Q 1731 2816 1550 2816 
z
M 1366 -431 
Q 1047 -431 944 -484 
Q 766 -581 766 -747 
Q 766 -906 950 -1036 
Q 1134 -1166 1644 -1166 
Q 2078 -1166 2326 -1050 
Q 2575 -934 2575 -725 
Q 2575 -647 2528 -594 
Q 2444 -500 2273 -465 
Q 2103 -431 1366 -431 
z
" transform="scale(0.015625)"/>
       <path id="TimesNewRomanPS-BoldMT-4d" d="M 3050 1444 
L 4200 4238 
L 5925 4238 
L 5925 4122 
L 5788 4122 
Q 5600 4122 5488 4056 
Q 5409 4013 5363 3909 
Q 5328 3834 5328 3519 
L 5328 725 
Q 5328 400 5362 319 
Q 5397 238 5503 177 
Q 5609 116 5788 116 
L 5925 116 
L 5925 0 
L 3713 0 
L 3713 116 
L 3850 116 
Q 4038 116 4150 181 
Q 4228 225 4275 331 
Q 4309 406 4309 725 
L 4309 3866 
L 2684 0 
L 2609 0 
L 959 3838 
L 959 853 
Q 959 541 975 469 
Q 1016 313 1152 214 
Q 1288 116 1578 116 
L 1578 0 
L 128 0 
L 128 116 
L 172 116 
Q 313 113 434 161 
Q 556 209 618 290 
Q 681 372 716 519 
Q 722 553 722 838 
L 722 3519 
Q 722 3841 687 3920 
Q 653 4000 547 4061 
Q 441 4122 263 4122 
L 128 4122 
L 128 4238 
L 1859 4238 
L 3050 1444 
z
" transform="scale(0.015625)"/>
       <path id="TimesNewRomanPS-BoldMT-49" d="M 2344 116 
L 2344 0 
L 128 0 
L 128 116 
L 269 116 
Q 453 116 566 181 
Q 647 225 691 331 
Q 725 406 725 725 
L 725 3513 
Q 725 3838 690 3919 
Q 656 4000 551 4061 
Q 447 4122 269 4122 
L 128 4122 
L 128 4238 
L 2344 4238 
L 2344 4122 
L 2203 4122 
Q 2019 4122 1906 4056 
Q 1825 4013 1778 3906 
Q 1744 3831 1744 3513 
L 1744 725 
Q 1744 400 1780 319 
Q 1816 238 1920 177 
Q 2025 116 2203 116 
L 2344 116 
z
" transform="scale(0.015625)"/>
      </defs>
      <use xlink:href="#TimesNewRomanPS-BoldMT-4c"/>
      <use xlink:href="#TimesNewRomanPS-BoldMT-6f" x="66.699219"/>
      <use xlink:href="#TimesNewRomanPS-BoldMT-67" x="116.699219"/>
      <use xlink:href="#TimesNewRomanPS-BoldMT-28" x="166.699219"/>
      <use xlink:href="#TimesNewRomanPS-BoldMT-41" x="200"/>
      <use xlink:href="#TimesNewRomanPS-BoldMT-4d" x="272.216797"/>
      <use xlink:href="#TimesNewRomanPS-BoldMT-49" x="366.601562"/>
      <use xlink:href="#TimesNewRomanPS-BoldMT-29" x="405.517578"/>
     </g>
    </g>
   </g>
   <g id="line2d_18">
    <path d="M 106.80989 77.670152 
L 104.368527 76.134369 
L 399.941358 262.069707 
L 104.368527 76.134369 
" clip-path="url(#p772fc2290d)" style="fill: none; stroke: #ff0000; stroke-width: 1.5; stroke-linecap: square"/>
   </g>
   <g id="patch_3">
    <path d="M 57.6 307.584 
L 57.6 41.472 
" style="fill: none; stroke: #000000; stroke-width: 0.8; stroke-linejoin: miter; stroke-linecap: square"/>
   </g>
   <g id="patch_4">
    <path d="M 414.72 307.584 
L 414.72 41.472 
" style="fill: none; stroke: #000000; stroke-width: 0.8; stroke-linejoin: miter; stroke-linecap: square"/>
   </g>
   <g id="patch_5">
    <path d="M 57.6 307.584 
L 414.72 307.584 
" style="fill: none; stroke: #000000; stroke-width: 0.8; stroke-linejoin: miter; stroke-linecap: square"/>
   </g>
   <g id="patch_6">
    <path d="M 57.6 41.472 
L 414.72 41.472 
" style="fill: none; stroke: #000000; stroke-width: 0.8; stroke-linejoin: miter; stroke-linecap: square"/>
   </g>
   <g id="legend_1">
    <g id="patch_7">
     <path d="M 306.487188 102.583875 
L 407.72 102.583875 
Q 409.72 102.583875 409.72 100.583875 
L 409.72 48.472 
Q 409.72 46.472 407.72 46.472 
L 306.487188 46.472 
Q 304.487188 46.472 304.487188 48.472 
L 304.487188 100.583875 
Q 304.487188 102.583875 306.487188 102.583875 
z
" style="fill: #ffffff; opacity: 0.8; stroke: #cccccc; stroke-linejoin: miter"/>
    </g>
    <g id="line2d_19">
     <path d="M 308.487188 60.351375 
L 318.487188 60.351375 
L 328.487188 60.351375 
" style="fill: none; stroke: #ff0000; stroke-width: 1.5; stroke-linecap: square"/>
    </g>
    <g id="text_20">
     <!-- y = -2.00x + 2.11 -->
     <g transform="translate(336.487188 57.397) scale(0.1 -0.1)">
      <defs>
       <path id="TimesNewRomanPSMT-79" d="M 38 2863 
L 1372 2863 
L 1372 2747 
L 1306 2747 
Q 1166 2747 1095 2686 
Q 1025 2625 1025 2534 
Q 1025 2413 1128 2197 
L 1825 753 
L 2466 2334 
Q 2519 2463 2519 2588 
Q 2519 2644 2497 2672 
Q 2472 2706 2419 2726 
Q 2366 2747 2231 2747 
L 2231 2863 
L 3163 2863 
L 3163 2747 
Q 3047 2734 2984 2696 
Q 2922 2659 2847 2556 
Q 2819 2513 2741 2316 
L 1575 -541 
Q 1406 -956 1132 -1168 
Q 859 -1381 606 -1381 
Q 422 -1381 303 -1275 
Q 184 -1169 184 -1031 
Q 184 -900 270 -820 
Q 356 -741 506 -741 
Q 609 -741 788 -809 
Q 913 -856 944 -856 
Q 1038 -856 1148 -759 
Q 1259 -663 1372 -384 
L 1575 113 
L 547 2272 
Q 500 2369 397 2513 
Q 319 2622 269 2659 
Q 197 2709 38 2747 
L 38 2863 
z
" transform="scale(0.015625)"/>
       <path id="TimesNewRomanPSMT-20" transform="scale(0.015625)"/>
       <path id="TimesNewRomanPSMT-3d" d="M 116 2759 
L 3488 2759 
L 3488 2503 
L 116 2503 
L 116 2759 
z
M 116 1741 
L 3488 1741 
L 3488 1484 
L 116 1484 
L 116 1741 
z
" transform="scale(0.015625)"/>
       <path id="TimesNewRomanPSMT-2d" d="M 259 1672 
L 1875 1672 
L 1875 1200 
L 259 1200 
L 259 1672 
z
" transform="scale(0.015625)"/>
       <path id="TimesNewRomanPSMT-2e" d="M 800 606 
Q 947 606 1047 504 
Q 1147 403 1147 259 
Q 1147 116 1045 14 
Q 944 -88 800 -88 
Q 656 -88 554 14 
Q 453 116 453 259 
Q 453 406 554 506 
Q 656 606 800 606 
z
" transform="scale(0.015625)"/>
       <path id="TimesNewRomanPSMT-78" d="M 84 2863 
L 1431 2863 
L 1431 2747 
Q 1303 2747 1251 2703 
Q 1200 2659 1200 2588 
Q 1200 2513 1309 2356 
Q 1344 2306 1413 2200 
L 1616 1875 
L 1850 2200 
Q 2075 2509 2075 2591 
Q 2075 2656 2022 2701 
Q 1969 2747 1850 2747 
L 1850 2863 
L 2819 2863 
L 2819 2747 
Q 2666 2738 2553 2663 
Q 2400 2556 2134 2200 
L 1744 1678 
L 2456 653 
Q 2719 275 2831 198 
Q 2944 122 3122 113 
L 3122 0 
L 1772 0 
L 1772 113 
Q 1913 113 1991 175 
Q 2050 219 2050 291 
Q 2050 363 1850 653 
L 1431 1266 
L 972 653 
Q 759 369 759 316 
Q 759 241 829 180 
Q 900 119 1041 113 
L 1041 0 
L 106 0 
L 106 113 
Q 219 128 303 191 
Q 422 281 703 653 
L 1303 1450 
L 759 2238 
Q 528 2575 401 2661 
Q 275 2747 84 2747 
L 84 2863 
z
" transform="scale(0.015625)"/>
       <path id="TimesNewRomanPSMT-2b" d="M 1672 441 
L 1672 2000 
L 116 2000 
L 116 2256 
L 1672 2256 
L 1672 3809 
L 1922 3809 
L 1922 2256 
L 3484 2256 
L 3484 2000 
L 1922 2000 
L 1922 441 
L 1672 441 
z
" transform="scale(0.015625)"/>
      </defs>
      <use xlink:href="#TimesNewRomanPSMT-79"/>
      <use xlink:href="#TimesNewRomanPSMT-20" x="50"/>
      <use xlink:href="#TimesNewRomanPSMT-3d" x="75"/>
      <use xlink:href="#TimesNewRomanPSMT-20" x="131.396484"/>
      <use xlink:href="#TimesNewRomanPSMT-2d" x="156.396484"/>
      <use xlink:href="#TimesNewRomanPSMT-32" x="189.697266"/>
      <use xlink:href="#TimesNewRomanPSMT-2e" x="239.697266"/>
      <use xlink:href="#TimesNewRomanPSMT-30" x="264.697266"/>
      <use xlink:href="#TimesNewRomanPSMT-30" x="314.697266"/>
      <use xlink:href="#TimesNewRomanPSMT-78" x="364.697266"/>
      <use xlink:href="#TimesNewRomanPSMT-20" x="414.697266"/>
      <use xlink:href="#TimesNewRomanPSMT-2b" x="439.697266"/>
      <use xlink:href="#TimesNewRomanPSMT-20" x="496.09375"/>
      <use xlink:href="#TimesNewRomanPSMT-32" x="521.09375"/>
      <use xlink:href="#TimesNewRomanPSMT-2e" x="571.09375"/>
      <use xlink:href="#TimesNewRomanPSMT-31" x="596.09375"/>
      <use xlink:href="#TimesNewRomanPSMT-31" x="642.34375"/>
     </g>
     <!-- $R^2$ = 0.76 -->
     <g transform="translate(336.487188 68.147938) scale(0.1 -0.1)">
      <defs>
       <path id="DejaVuSans-Oblique-52" d="M 1613 4147 
L 1294 2491 
L 2106 2491 
Q 2584 2491 2879 2755 
Q 3175 3019 3175 3444 
Q 3175 3784 2976 3965 
Q 2778 4147 2406 4147 
L 1613 4147 
z
M 2772 2241 
Q 2972 2194 3105 2009 
Q 3238 1825 3413 1275 
L 3809 0 
L 3144 0 
L 2778 1197 
Q 2638 1659 2453 1815 
Q 2269 1972 1888 1972 
L 1191 1972 
L 806 0 
L 172 0 
L 1081 4666 
L 2503 4666 
Q 3150 4666 3495 4373 
Q 3841 4081 3841 3531 
Q 3841 3044 3547 2687 
Q 3253 2331 2772 2241 
z
" transform="scale(0.015625)"/>
       <path id="DejaVuSans-32" d="M 1228 531 
L 3431 531 
L 3431 0 
L 469 0 
L 469 531 
Q 828 903 1448 1529 
Q 2069 2156 2228 2338 
Q 2531 2678 2651 2914 
Q 2772 3150 2772 3378 
Q 2772 3750 2511 3984 
Q 2250 4219 1831 4219 
Q 1534 4219 1204 4116 
Q 875 4013 500 3803 
L 500 4441 
Q 881 4594 1212 4672 
Q 1544 4750 1819 4750 
Q 2544 4750 2975 4387 
Q 3406 4025 3406 3419 
Q 3406 3131 3298 2873 
Q 3191 2616 2906 2266 
Q 2828 2175 2409 1742 
Q 1991 1309 1228 531 
z
" transform="scale(0.015625)"/>
      </defs>
      <use xlink:href="#DejaVuSans-Oblique-52" transform="translate(0 0.765625)"/>
      <use xlink:href="#DejaVuSans-32" transform="translate(76.499193 39.046875) scale(0.7)"/>
      <use xlink:href="#TimesNewRomanPSMT-20" transform="translate(123.769701 0.765625)"/>
      <use xlink:href="#TimesNewRomanPSMT-3d" transform="translate(148.769701 0.765625)"/>
      <use xlink:href="#TimesNewRomanPSMT-20" transform="translate(205.166185 0.765625)"/>
      <use xlink:href="#TimesNewRomanPSMT-30" transform="translate(230.166185 0.765625)"/>
      <use xlink:href="#TimesNewRomanPSMT-2e" transform="translate(280.166185 0.765625)"/>
      <use xlink:href="#TimesNewRomanPSMT-37" transform="translate(305.166185 0.765625)"/>
      <use xlink:href="#TimesNewRomanPSMT-36" transform="translate(355.166185 0.765625)"/>
     </g>
    </g>
    <g id="line2d_20">
     <path d="M 308.487188 78.787 
L 318.487188 78.787 
L 328.487188 78.787 
" style="fill: none; stroke: #ffffff; stroke-width: 1.5; stroke-linecap: square"/>
     <defs>
      <path id="mf4d196470e" d="M 0 5 
C 1.326016 5 2.597899 4.473168 3.535534 3.535534 
C 4.473168 2.597899 5 1.326016 5 0 
C 5 -1.326016 4.473168 -2.597899 3.535534 -3.535534 
C 2.597899 -4.473168 1.326016 -5 0 -5 
C -1.326016 -5 -2.597899 -4.473168 -3.535534 -3.535534 
C -4.473168 -2.597899 -5 -1.326016 -5 0 
C -5 1.326016 -4.473168 2.597899 -3.535534 3.535534 
C -2.597899 4.473168 -1.326016 5 0 5 
z
" style="stroke: #ffffff"/>
     </defs>
     <g>
      <use xlink:href="#mf4d196470e" x="318.487188" y="78.787" style="fill: #c8beb7; stroke: #ffffff"/>
     </g>
    </g>
    <g id="text_21">
     <!-- H-H\C\N\O -->
     <g transform="translate(336.487188 82.287) scale(0.1 -0.1)">
      <defs>
       <path id="TimesNewRomanPSMT-48" d="M 1316 2272 
L 3284 2272 
L 3284 3484 
Q 3284 3809 3244 3913 
Q 3213 3991 3113 4047 
Q 2978 4122 2828 4122 
L 2678 4122 
L 2678 4238 
L 4491 4238 
L 4491 4122 
L 4341 4122 
Q 4191 4122 4056 4050 
Q 3956 4000 3920 3898 
Q 3884 3797 3884 3484 
L 3884 750 
Q 3884 428 3925 325 
Q 3956 247 4053 191 
Q 4191 116 4341 116 
L 4491 116 
L 4491 0 
L 2678 0 
L 2678 116 
L 2828 116 
Q 3088 116 3206 269 
Q 3284 369 3284 750 
L 3284 2041 
L 1316 2041 
L 1316 750 
Q 1316 428 1356 325 
Q 1388 247 1488 191 
Q 1622 116 1772 116 
L 1925 116 
L 1925 0 
L 109 0 
L 109 116 
L 259 116 
Q 522 116 641 269 
Q 716 369 716 750 
L 716 3484 
Q 716 3809 675 3913 
Q 644 3991 547 4047 
Q 409 4122 259 4122 
L 109 4122 
L 109 4238 
L 1925 4238 
L 1925 4122 
L 1772 4122 
Q 1622 4122 1488 4050 
Q 1391 4000 1353 3898 
Q 1316 3797 1316 3484 
L 1316 2272 
z
" transform="scale(0.015625)"/>
       <path id="TimesNewRomanPSMT-5c" d="M 259 4444 
L 1791 -88 
L 1541 -88 
L 9 4444 
L 259 4444 
z
" transform="scale(0.015625)"/>
       <path id="TimesNewRomanPSMT-43" d="M 3853 4334 
L 3950 2894 
L 3853 2894 
Q 3659 3541 3300 3825 
Q 2941 4109 2438 4109 
Q 2016 4109 1675 3895 
Q 1334 3681 1139 3212 
Q 944 2744 944 2047 
Q 944 1472 1128 1050 
Q 1313 628 1683 403 
Q 2053 178 2528 178 
Q 2941 178 3256 354 
Q 3572 531 3950 1056 
L 4047 994 
Q 3728 428 3303 165 
Q 2878 -97 2294 -97 
Q 1241 -97 663 684 
Q 231 1266 231 2053 
Q 231 2688 515 3219 
Q 800 3750 1298 4042 
Q 1797 4334 2388 4334 
Q 2847 4334 3294 4109 
Q 3425 4041 3481 4041 
Q 3566 4041 3628 4100 
Q 3709 4184 3744 4334 
L 3853 4334 
z
" transform="scale(0.015625)"/>
       <path id="TimesNewRomanPSMT-4e" d="M -84 4238 
L 1066 4238 
L 3656 1059 
L 3656 3503 
Q 3656 3894 3569 3991 
Q 3453 4122 3203 4122 
L 3056 4122 
L 3056 4238 
L 4531 4238 
L 4531 4122 
L 4381 4122 
Q 4113 4122 4000 3959 
Q 3931 3859 3931 3503 
L 3931 -69 
L 3819 -69 
L 1025 3344 
L 1025 734 
Q 1025 344 1109 247 
Q 1228 116 1475 116 
L 1625 116 
L 1625 0 
L 150 0 
L 150 116 
L 297 116 
Q 569 116 681 278 
Q 750 378 750 734 
L 750 3681 
Q 566 3897 470 3965 
Q 375 4034 191 4094 
Q 100 4122 -84 4122 
L -84 4238 
z
" transform="scale(0.015625)"/>
       <path id="TimesNewRomanPSMT-4f" d="M 2341 4334 
Q 3166 4334 3770 3707 
Q 4375 3081 4375 2144 
Q 4375 1178 3765 540 
Q 3156 -97 2291 -97 
Q 1416 -97 820 525 
Q 225 1147 225 2134 
Q 225 3144 913 3781 
Q 1509 4334 2341 4334 
z
M 2281 4106 
Q 1713 4106 1369 3684 
Q 941 3159 941 2147 
Q 941 1109 1384 550 
Q 1725 125 2284 125 
Q 2881 125 3270 590 
Q 3659 1056 3659 2059 
Q 3659 3147 3231 3681 
Q 2888 4106 2281 4106 
z
" transform="scale(0.015625)"/>
      </defs>
      <use xlink:href="#TimesNewRomanPSMT-48"/>
      <use xlink:href="#TimesNewRomanPSMT-2d" x="72.216797"/>
      <use xlink:href="#TimesNewRomanPSMT-48" x="105.517578"/>
      <use xlink:href="#TimesNewRomanPSMT-5c" x="177.734375"/>
      <use xlink:href="#TimesNewRomanPSMT-43" x="205.517578"/>
      <use xlink:href="#TimesNewRomanPSMT-5c" x="272.216797"/>
      <use xlink:href="#TimesNewRomanPSMT-4e" x="300"/>
      <use xlink:href="#TimesNewRomanPSMT-5c" x="372.216797"/>
      <use xlink:href="#TimesNewRomanPSMT-4f" x="400"/>
     </g>
    </g>
    <g id="line2d_21">
     <path d="M 308.487188 92.926063 
L 318.487188 92.926063 
L 328.487188 92.926063 
" style="fill: none; stroke: #ffffff; stroke-width: 1.5; stroke-linecap: square"/>
     <defs>
      <path id="m31e91b6497" d="M 0 5 
C 1.326016 5 2.597899 4.473168 3.535534 3.535534 
C 4.473168 2.597899 5 1.326016 5 0 
C 5 -1.326016 4.473168 -2.597899 3.535534 -3.535534 
C 2.597899 -4.473168 1.326016 -5 0 -5 
C -1.326016 -5 -2.597899 -4.473168 -3.535534 -3.535534 
C -4.473168 -2.597899 -5 -1.326016 -5 0 
C -5 1.326016 -4.473168 2.597899 -3.535534 3.535534 
C -2.597899 4.473168 -1.326016 5 0 5 
z
" style="stroke: #ffffff"/>
     </defs>
     <g>
      <use xlink:href="#m31e91b6497" x="318.487188" y="92.926063" style="fill: #0000ff; stroke: #ffffff"/>
     </g>
    </g>
    <g id="text_22">
     <!-- Heavy atoms -->
     <g transform="translate(336.487188 96.426063) scale(0.1 -0.1)">
      <defs>
       <path id="TimesNewRomanPSMT-65" d="M 681 1784 
Q 678 1147 991 784 
Q 1303 422 1725 422 
Q 2006 422 2214 576 
Q 2422 731 2563 1106 
L 2659 1044 
Q 2594 616 2278 264 
Q 1963 -88 1488 -88 
Q 972 -88 605 314 
Q 238 716 238 1394 
Q 238 2128 614 2539 
Q 991 2950 1559 2950 
Q 2041 2950 2350 2633 
Q 2659 2316 2659 1784 
L 681 1784 
z
M 681 1966 
L 2006 1966 
Q 1991 2241 1941 2353 
Q 1863 2528 1708 2628 
Q 1553 2728 1384 2728 
Q 1125 2728 920 2526 
Q 716 2325 681 1966 
z
" transform="scale(0.015625)"/>
       <path id="TimesNewRomanPSMT-61" d="M 1822 413 
Q 1381 72 1269 19 
Q 1100 -59 909 -59 
Q 613 -59 420 144 
Q 228 347 228 678 
Q 228 888 322 1041 
Q 450 1253 767 1440 
Q 1084 1628 1822 1897 
L 1822 2009 
Q 1822 2438 1686 2597 
Q 1550 2756 1291 2756 
Q 1094 2756 978 2650 
Q 859 2544 859 2406 
L 866 2225 
Q 866 2081 792 2003 
Q 719 1925 600 1925 
Q 484 1925 411 2006 
Q 338 2088 338 2228 
Q 338 2497 613 2722 
Q 888 2947 1384 2947 
Q 1766 2947 2009 2819 
Q 2194 2722 2281 2516 
Q 2338 2381 2338 1966 
L 2338 994 
Q 2338 584 2353 492 
Q 2369 400 2405 369 
Q 2441 338 2488 338 
Q 2538 338 2575 359 
Q 2641 400 2828 588 
L 2828 413 
Q 2478 -56 2159 -56 
Q 2006 -56 1915 50 
Q 1825 156 1822 413 
z
M 1822 616 
L 1822 1706 
Q 1350 1519 1213 1441 
Q 966 1303 859 1153 
Q 753 1003 753 825 
Q 753 600 887 451 
Q 1022 303 1197 303 
Q 1434 303 1822 616 
z
" transform="scale(0.015625)"/>
       <path id="TimesNewRomanPSMT-76" d="M 53 2863 
L 1400 2863 
L 1400 2747 
L 1313 2747 
Q 1191 2747 1127 2687 
Q 1063 2628 1063 2528 
Q 1063 2419 1128 2269 
L 1794 688 
L 2463 2328 
Q 2534 2503 2534 2594 
Q 2534 2638 2509 2666 
Q 2475 2713 2422 2730 
Q 2369 2747 2206 2747 
L 2206 2863 
L 3141 2863 
L 3141 2747 
Q 2978 2734 2916 2681 
Q 2806 2588 2719 2369 
L 1703 -88 
L 1575 -88 
L 553 2328 
Q 484 2497 421 2570 
Q 359 2644 263 2694 
Q 209 2722 53 2747 
L 53 2863 
z
" transform="scale(0.015625)"/>
       <path id="TimesNewRomanPSMT-74" d="M 1031 3803 
L 1031 2863 
L 1700 2863 
L 1700 2644 
L 1031 2644 
L 1031 788 
Q 1031 509 1111 412 
Q 1191 316 1316 316 
Q 1419 316 1516 380 
Q 1613 444 1666 569 
L 1788 569 
Q 1678 263 1478 108 
Q 1278 -47 1066 -47 
Q 922 -47 784 33 
Q 647 113 581 261 
Q 516 409 516 719 
L 516 2644 
L 63 2644 
L 63 2747 
Q 234 2816 414 2980 
Q 594 3144 734 3369 
Q 806 3488 934 3803 
L 1031 3803 
z
" transform="scale(0.015625)"/>
       <path id="TimesNewRomanPSMT-6f" d="M 1600 2947 
Q 2250 2947 2644 2453 
Q 2978 2031 2978 1484 
Q 2978 1100 2793 706 
Q 2609 313 2286 112 
Q 1963 -88 1566 -88 
Q 919 -88 538 428 
Q 216 863 216 1403 
Q 216 1797 411 2186 
Q 606 2575 925 2761 
Q 1244 2947 1600 2947 
z
M 1503 2744 
Q 1338 2744 1170 2645 
Q 1003 2547 900 2300 
Q 797 2053 797 1666 
Q 797 1041 1045 587 
Q 1294 134 1700 134 
Q 2003 134 2200 384 
Q 2397 634 2397 1244 
Q 2397 2006 2069 2444 
Q 1847 2744 1503 2744 
z
" transform="scale(0.015625)"/>
       <path id="TimesNewRomanPSMT-6d" d="M 1050 2338 
Q 1363 2650 1419 2697 
Q 1559 2816 1721 2881 
Q 1884 2947 2044 2947 
Q 2313 2947 2506 2790 
Q 2700 2634 2766 2338 
Q 3088 2713 3309 2830 
Q 3531 2947 3766 2947 
Q 3994 2947 4170 2830 
Q 4347 2713 4450 2447 
Q 4519 2266 4519 1878 
L 4519 647 
Q 4519 378 4559 278 
Q 4591 209 4675 161 
Q 4759 113 4950 113 
L 4950 0 
L 3538 0 
L 3538 113 
L 3597 113 
Q 3781 113 3884 184 
Q 3956 234 3988 344 
Q 4000 397 4000 647 
L 4000 1878 
Q 4000 2228 3916 2372 
Q 3794 2572 3525 2572 
Q 3359 2572 3192 2489 
Q 3025 2406 2788 2181 
L 2781 2147 
L 2788 2013 
L 2788 647 
Q 2788 353 2820 281 
Q 2853 209 2943 161 
Q 3034 113 3253 113 
L 3253 0 
L 1806 0 
L 1806 113 
Q 2044 113 2133 169 
Q 2222 225 2256 338 
Q 2272 391 2272 647 
L 2272 1878 
Q 2272 2228 2169 2381 
Q 2031 2581 1784 2581 
Q 1616 2581 1450 2491 
Q 1191 2353 1050 2181 
L 1050 647 
Q 1050 366 1089 281 
Q 1128 197 1204 155 
Q 1281 113 1516 113 
L 1516 0 
L 100 0 
L 100 113 
Q 297 113 375 155 
Q 453 197 493 289 
Q 534 381 534 647 
L 534 1741 
Q 534 2213 506 2350 
Q 484 2453 437 2492 
Q 391 2531 309 2531 
Q 222 2531 100 2484 
L 53 2597 
L 916 2947 
L 1050 2947 
L 1050 2338 
z
" transform="scale(0.015625)"/>
       <path id="TimesNewRomanPSMT-73" d="M 2050 2947 
L 2050 1972 
L 1947 1972 
Q 1828 2431 1642 2597 
Q 1456 2763 1169 2763 
Q 950 2763 815 2647 
Q 681 2531 681 2391 
Q 681 2216 781 2091 
Q 878 1963 1175 1819 
L 1631 1597 
Q 2266 1288 2266 781 
Q 2266 391 1970 151 
Q 1675 -88 1309 -88 
Q 1047 -88 709 6 
Q 606 38 541 38 
Q 469 38 428 -44 
L 325 -44 
L 325 978 
L 428 978 
Q 516 541 762 319 
Q 1009 97 1316 97 
Q 1531 97 1667 223 
Q 1803 350 1803 528 
Q 1803 744 1651 891 
Q 1500 1038 1047 1263 
Q 594 1488 453 1669 
Q 313 1847 313 2119 
Q 313 2472 555 2709 
Q 797 2947 1181 2947 
Q 1350 2947 1591 2875 
Q 1750 2828 1803 2828 
Q 1853 2828 1881 2850 
Q 1909 2872 1947 2947 
L 2050 2947 
z
" transform="scale(0.015625)"/>
      </defs>
      <use xlink:href="#TimesNewRomanPSMT-48"/>
      <use xlink:href="#TimesNewRomanPSMT-65" x="72.216797"/>
      <use xlink:href="#TimesNewRomanPSMT-61" x="116.601562"/>
      <use xlink:href="#TimesNewRomanPSMT-76" x="160.986328"/>
      <use xlink:href="#TimesNewRomanPSMT-79" x="210.986328"/>
      <use xlink:href="#TimesNewRomanPSMT-20" x="260.986328"/>
      <use xlink:href="#TimesNewRomanPSMT-61" x="285.986328"/>
      <use xlink:href="#TimesNewRomanPSMT-74" x="330.371094"/>
      <use xlink:href="#TimesNewRomanPSMT-6f" x="358.154297"/>
      <use xlink:href="#TimesNewRomanPSMT-6d" x="408.154297"/>
      <use xlink:href="#TimesNewRomanPSMT-73" x="485.9375"/>
     </g>
    </g>
   </g>
  </g>
 </g>
 <defs>
  <clipPath id="p772fc2290d">
   <rect x="57.6" y="41.472" width="357.12" height="266.112"/>
  </clipPath>
 </defs>
</svg>
